<svg width="549" height="418" viewBox="0 0 549 418" fill="none" xmlns="http://www.w3.org/2000/svg">
<path opacity="0.6" d="M215.452 86.5615C219.878 77.0946 225.492 67.9547 232.54 59.3349C287.928 -8.40767 396.765 -2.70129 460.583 51.9057C531.362 112.466 524.818 214.391 523.371 231.806C518.338 292.389 486.877 391.006 414.512 411.096C380.895 420.428 348.817 409.934 320.831 390.466C298.73 375.091 269.587 376.526 248.492 394.549C240.512 401.366 231.617 407.129 221.735 411.21C199.372 420.447 179.463 417.972 170.84 416.791C103.622 407.585 37.9585 331.071 38.5766 259.527C39.2867 177.43 127.167 114.459 215.452 86.5615Z" fill="#FEECEC"/>
<path d="M439.338 185.035V352.687C439.338 352.89 439.329 353.094 439.32 353.308C439.32 353.405 439.31 353.502 439.301 353.6C439.301 353.687 439.291 353.784 439.282 353.881C439.282 353.92 439.273 353.96 439.273 353.997C439.263 354.064 439.252 354.124 439.243 354.182C439.234 354.327 439.204 354.473 439.185 354.619C439.166 354.755 439.136 354.9 439.107 355.037C439.097 355.104 439.077 355.173 439.058 355.24C439.058 355.289 439.049 355.347 439.028 355.395C439.019 355.463 438.999 355.531 438.98 355.599C438.95 355.726 438.913 355.851 438.883 355.968C438.883 355.987 438.873 356.017 438.863 356.035C438.795 356.25 438.736 356.463 438.659 356.666C438.659 356.676 438.659 356.687 438.65 356.696C438.611 356.803 438.571 356.909 438.534 357.008C438.495 357.105 438.456 357.192 438.427 357.28C438.418 357.31 438.398 357.338 438.398 357.358C438.282 357.621 438.164 357.892 438.028 358.144C437.989 358.223 437.941 358.32 437.892 358.407C437.843 358.495 437.795 358.572 437.746 358.659C437.698 358.738 437.659 358.824 437.601 358.902C437.504 359.066 437.397 359.232 437.289 359.387C437.222 359.494 437.153 359.581 437.095 359.679C436.931 359.891 436.774 360.106 436.601 360.309C436.474 360.464 436.349 360.61 436.222 360.746C436.095 360.892 435.96 361.028 435.824 361.164C435.766 361.233 435.697 361.291 435.63 361.358C435.572 361.416 435.514 361.474 435.445 361.523C435.378 361.59 435.3 361.659 435.222 361.726C435.203 361.745 435.173 361.765 435.153 361.784C434.968 361.949 434.774 362.105 434.58 362.251C434.559 362.26 434.541 362.28 434.522 362.299C434.367 362.406 434.21 362.523 434.046 362.63C433.988 362.669 433.94 362.708 433.891 362.736C433.803 362.794 433.716 362.852 433.63 362.902C433.562 362.951 433.493 362.99 433.415 363.029C433.337 363.077 433.26 363.126 433.182 363.165C432.639 363.477 432.066 363.738 431.473 363.951C431.433 363.96 431.405 363.981 431.366 363.99C431.327 363.999 431.278 364.02 431.239 364.029C431.103 364.078 430.967 364.126 430.821 364.165C430.579 364.244 430.336 364.302 430.093 364.36C429.967 364.389 429.841 364.417 429.715 364.447C429.636 364.466 429.55 364.477 429.472 364.486C429.375 364.507 429.268 364.525 429.171 364.544C429.153 364.544 429.142 364.544 429.132 364.554C429.054 364.563 428.977 364.572 428.89 364.583C428.851 364.583 428.811 364.593 428.774 364.593C428.707 364.602 428.628 364.612 428.561 364.621C428.522 364.621 428.483 364.63 428.434 364.63C428.289 364.64 428.134 364.651 427.986 364.66C427.774 364.669 427.559 364.679 427.346 364.679H131.192C130.979 364.679 130.764 364.669 130.552 364.66C130.406 364.651 130.251 364.641 130.105 364.63C129.941 364.621 129.775 364.601 129.611 364.572C129.514 364.563 129.417 364.554 129.329 364.533C129.096 364.504 128.863 364.455 128.64 364.407C128.571 364.397 128.513 364.377 128.446 364.358C128.203 364.3 127.961 364.242 127.718 364.164C127.573 364.115 127.436 364.076 127.3 364.028C126.649 363.804 126.018 363.522 125.416 363.203C125.27 363.115 125.124 363.027 124.979 362.94C124.815 362.842 124.649 362.736 124.494 362.628C123.532 361.977 122.678 361.2 121.939 360.306C121.764 360.103 121.599 359.888 121.444 359.666C120.911 358.927 120.463 358.132 120.114 357.277C120.035 357.083 119.959 356.868 119.881 356.665C119.802 356.461 119.744 356.247 119.677 356.034C119.619 355.819 119.561 355.607 119.513 355.394C119.464 355.19 119.425 354.996 119.386 354.791C119.376 354.763 119.376 354.724 119.367 354.694C119.337 354.5 119.309 354.296 119.289 354.102C119.279 354.093 119.279 354.072 119.279 354.053C119.261 353.899 119.25 353.753 119.24 353.598C119.211 353.297 119.201 352.995 119.201 352.685V185.035C119.201 183.598 119.453 182.219 119.92 180.936C120.659 178.906 121.93 177.129 123.572 175.78C123.592 175.761 123.62 175.74 123.65 175.722L124.271 175.246C126.223 173.857 128.612 173.041 131.195 173.041H427.349C427.641 173.041 427.922 173.051 428.204 173.081C428.253 173.071 428.311 173.081 428.359 173.09C428.631 173.109 428.913 173.138 429.175 173.178C429.232 173.187 429.301 173.196 429.359 173.207C429.593 173.246 429.826 173.295 430.048 173.353C430.106 173.362 430.164 173.372 430.223 173.392C430.505 173.459 430.777 173.538 431.048 173.625C431.3 173.704 431.563 173.801 431.806 173.898C432.155 174.034 432.495 174.198 432.825 174.374C433.01 174.461 433.194 174.558 433.368 174.665C433.68 174.84 433.98 175.034 434.262 175.247C434.271 175.238 434.271 175.247 434.271 175.247L434.893 175.723C434.923 175.744 434.951 175.762 434.971 175.781C435.135 175.908 435.283 176.044 435.428 176.179C435.544 176.276 435.652 176.382 435.758 176.49C436.089 176.811 436.399 177.151 436.691 177.52C436.828 177.685 436.953 177.851 437.07 178.015C437.576 178.704 438.003 179.452 438.343 180.249C438.44 180.464 438.528 180.686 438.615 180.91C438.615 180.919 438.625 180.929 438.625 180.94C438.761 181.3 438.867 181.668 438.964 182.037C439.013 182.222 439.052 182.397 439.091 182.58C439.121 182.726 439.149 182.862 439.169 183.008C439.198 183.153 439.218 183.299 439.237 183.444C439.266 183.62 439.285 183.794 439.295 183.969C439.313 184.115 439.324 184.27 439.324 184.415C439.334 184.619 439.343 184.833 439.343 185.037L439.338 185.035Z" fill="#DFE5EA"/>
<path d="M438.619 180.937H119.916C120.655 178.906 121.926 177.13 123.568 175.78C123.588 175.761 123.616 175.741 123.646 175.722L124.267 175.246L271.922 63.1465C276.263 59.8447 282.274 59.8447 286.614 63.1465L434.26 175.245C434.269 175.235 434.269 175.245 434.269 175.245L434.891 175.721C434.92 175.741 434.948 175.76 434.969 175.778C435.133 175.905 435.28 176.041 435.426 176.176C435.542 176.273 435.65 176.38 435.756 176.488C436.086 176.809 436.396 177.148 436.689 177.518C436.825 177.682 436.95 177.848 437.068 178.013C437.573 178.701 438.001 179.45 438.341 180.247C438.438 180.461 438.525 180.683 438.613 180.907C438.613 180.917 438.622 180.926 438.622 180.937H438.619Z" fill="url(#paint0_linear_233_863)"/>
<path d="M159.699 82.0972H394.883C406.732 82.0972 416.352 91.7175 416.352 103.569V355.956H138.23V103.569C138.23 91.719 147.85 82.0972 159.699 82.0972Z" fill="white"/>
<path d="M379.477 130.072H175.113C172.238 130.072 169.908 132.402 169.908 135.277V137.493C169.908 140.367 172.238 142.698 175.113 142.698H379.477C382.352 142.698 384.682 140.367 384.682 137.493V135.277C384.682 132.402 382.352 130.072 379.477 130.072Z" fill="#E4ECF9"/>
<path d="M175.113 157.042H379.475C382.348 157.042 384.682 159.374 384.682 162.249V164.462C384.682 167.335 382.349 169.669 379.475 169.669H175.113C172.241 169.669 169.908 167.337 169.908 164.464V162.25C169.908 159.378 172.241 157.045 175.113 157.045V157.042Z" fill="#E4ECF9"/>
<path d="M175.113 184.014H379.475C382.348 184.014 384.682 186.346 384.682 189.221V191.434C384.682 194.307 382.349 196.64 379.477 196.64H175.113C172.241 196.64 169.908 194.307 169.908 191.434V189.221C169.908 186.348 172.241 184.015 175.113 184.015V184.014Z" fill="#E4ECF9"/>
<path d="M175.113 210.987H379.475C382.348 210.987 384.682 213.32 384.682 216.194V218.408C384.682 221.281 382.349 223.613 379.477 223.613H175.113C172.241 223.613 169.908 221.281 169.908 218.408V216.194C169.908 213.321 172.241 210.987 175.115 210.987H175.113Z" fill="#E4ECF9"/>
<path d="M175.113 237.96H379.475C382.348 237.96 384.682 240.293 384.682 243.167V245.381C384.682 248.253 382.349 250.586 379.477 250.586H175.113C172.241 250.586 169.908 248.253 169.908 245.381V243.167C169.908 240.294 172.241 237.962 175.113 237.962V237.96Z" fill="#E4ECF9"/>
<path d="M279.275 273.357V273.367C278.808 273.872 278.255 274.337 277.623 274.727L131.852 364.68H131.191C129.978 364.68 128.812 364.505 127.714 364.165C127.559 364.117 127.403 364.068 127.257 364.02C125.344 363.359 123.644 362.223 122.314 360.746C122.187 360.61 122.062 360.464 121.935 360.309C121.566 359.873 121.235 359.397 120.935 358.9C120.828 358.736 120.741 358.57 120.644 358.406C120.556 358.23 120.459 358.057 120.382 357.881C119.625 356.308 119.197 354.55 119.197 352.685V185.035C119.197 183.598 119.449 182.219 119.916 180.936C120.655 178.906 121.926 177.129 123.568 175.78C123.588 175.761 123.616 175.74 123.646 175.722L124.267 175.246C126.219 173.857 128.608 173.041 131.191 173.041H133.929L146.729 180.938L264.717 253.75L269.155 256.488L277.623 261.714C278.254 262.102 278.808 262.569 279.275 263.073V263.082C281.906 265.968 281.906 270.483 279.275 273.359V273.357Z" fill="url(#paint1_linear_233_863)"/>
<path d="M439.342 185.037V352.689C439.342 352.892 439.333 353.096 439.323 353.31C439.323 353.408 439.314 353.505 439.305 353.602C439.305 353.689 439.295 353.786 439.286 353.883C439.286 353.923 439.276 353.962 439.276 353.999C439.267 354.067 439.256 354.126 439.247 354.184C439.237 354.33 439.207 354.475 439.189 354.621C439.17 354.757 439.14 354.903 439.11 355.039C439.11 355.058 439.101 355.087 439.101 355.106C439.092 355.145 439.082 355.194 439.062 355.242C439.062 355.291 439.053 355.349 439.032 355.397C439.023 355.465 439.002 355.534 438.984 355.601C438.954 355.728 438.926 355.844 438.887 355.97C438.887 355.989 438.877 356.019 438.866 356.038C438.808 356.252 438.739 356.465 438.663 356.669C438.663 356.678 438.663 356.689 438.653 356.698C438.614 356.805 438.586 356.902 438.538 357.01C438.508 357.098 438.47 357.185 438.431 357.282C438.422 357.301 438.411 357.331 438.401 357.361C438.285 357.624 438.168 357.894 438.032 358.146C437.993 358.225 437.944 358.322 437.896 358.409C437.847 358.497 437.799 358.574 437.75 358.661C437.702 358.74 437.663 358.826 437.605 358.904C437.508 359.069 437.401 359.235 437.293 359.389C437.226 359.496 437.157 359.584 437.099 359.681C436.935 359.905 436.769 360.108 436.604 360.312C436.478 360.467 436.352 360.612 436.226 360.748C436.099 360.894 435.964 361.03 435.828 361.166C435.77 361.235 435.701 361.293 435.634 361.361C435.576 361.418 435.518 361.476 435.449 361.525C435.382 361.592 435.304 361.661 435.225 361.728C435.206 361.747 435.177 361.768 435.156 361.786C434.972 361.951 434.778 362.107 434.583 362.253C434.563 362.262 434.544 362.283 434.526 362.301C434.371 362.408 434.214 362.525 434.05 362.632C433.992 362.671 433.943 362.71 433.895 362.738C433.807 362.796 433.719 362.854 433.633 362.904C433.566 362.953 433.497 362.992 433.419 363.031C433.341 363.079 433.264 363.128 433.186 363.167C432.642 363.479 432.07 363.74 431.476 363.953C431.437 363.962 431.398 363.983 431.37 363.992C431.331 364.002 431.282 364.022 431.243 364.031C431.107 364.08 430.971 364.128 430.825 364.168C430.582 364.246 430.34 364.304 430.097 364.362C429.97 364.391 429.845 364.42 429.718 364.449C429.64 364.468 429.554 364.479 429.476 364.488C429.379 364.509 429.272 364.528 429.175 364.546H429.145C429.058 364.556 428.97 364.576 428.893 364.586C428.854 364.586 428.815 364.595 428.778 364.595C428.71 364.604 428.641 364.614 428.565 364.623C428.526 364.623 428.486 364.633 428.438 364.633C428.292 364.642 428.137 364.653 427.99 364.662C427.777 364.672 427.563 364.681 427.35 364.681H426.689L280.918 274.728C280.287 274.339 279.733 273.873 279.277 273.367V273.358C276.637 270.472 276.637 265.976 279.277 263.081V263.072C279.735 262.568 280.287 262.101 280.918 261.713L289.375 256.487L293.813 253.749L411.811 180.937L424.609 173.04H427.347C427.638 173.04 427.92 173.05 428.202 173.08C428.25 173.07 428.308 173.08 428.357 173.089C428.629 173.108 428.911 173.137 429.172 173.177C429.23 173.186 429.299 173.195 429.357 173.206C429.59 173.246 429.823 173.294 430.046 173.352C430.103 173.361 430.161 173.371 430.221 173.391C430.503 173.458 430.775 173.537 431.046 173.624C431.298 173.703 431.561 173.8 431.803 173.897C432.152 174.033 432.492 174.197 432.822 174.373C433.007 174.46 433.192 174.557 433.366 174.664C433.677 174.839 433.978 175.033 434.259 175.246C434.269 175.237 434.269 175.246 434.269 175.246L434.89 175.722C434.92 175.743 434.948 175.761 434.969 175.78C435.133 175.907 435.28 176.043 435.426 176.178C435.541 176.275 435.649 176.381 435.756 176.489C436.086 176.81 436.396 177.15 436.689 177.519C436.825 177.684 436.95 177.85 437.068 178.014C437.573 178.703 438.001 179.451 438.34 180.248C438.437 180.463 438.525 180.685 438.613 180.909C438.613 180.918 438.622 180.928 438.622 180.939C438.758 181.299 438.865 181.667 438.962 182.036C439.01 182.221 439.049 182.396 439.089 182.579C439.118 182.725 439.146 182.861 439.167 183.007C439.195 183.152 439.215 183.298 439.234 183.443C439.264 183.619 439.283 183.793 439.292 183.968C439.311 184.114 439.322 184.269 439.322 184.414C439.331 184.618 439.341 184.832 439.341 185.036L439.342 185.037Z" fill="url(#paint2_linear_233_863)"/>
<path opacity="0.29" d="M439.341 350.417V352.161C439.341 359.075 433.971 364.681 427.348 364.681H131.195C124.572 364.681 119.201 359.075 119.201 352.161V350.417L271.527 250.184C276.256 247.072 282.278 247.072 287.007 250.184L439.341 350.417Z" fill="#474747"/>
<path d="M439.341 351.017V352.687C439.341 359.311 433.971 364.681 427.348 364.681H131.195C124.572 364.681 119.201 359.31 119.201 352.687V351.017L271.527 254.992C276.256 252.011 282.278 252.011 287.007 254.992L439.341 351.017Z" fill="url(#paint3_linear_233_863)"/>
<path d="M160.509 341.606C160.483 341.606 160.456 341.606 160.429 341.604C156.879 341.463 153.305 341.156 149.807 340.691C148.73 340.549 147.974 339.561 148.116 338.486C148.259 337.409 149.248 336.646 150.323 336.796C153.703 337.244 157.155 337.54 160.586 337.678C161.671 337.72 162.514 338.634 162.472 339.719C162.43 340.778 161.558 341.607 160.509 341.607V341.606ZM170.985 341.557C169.944 341.557 169.075 340.738 169.023 339.686C168.97 338.601 169.806 337.679 170.891 337.628C174.28 337.463 177.736 337.149 181.162 336.69C182.241 336.543 183.227 337.302 183.371 338.378C183.515 339.455 182.759 340.443 181.684 340.587C178.148 341.059 174.58 341.385 171.082 341.556C171.049 341.556 171.017 341.557 170.985 341.557ZM139.753 338.844C139.607 338.844 139.458 338.827 139.311 338.794C135.864 338.002 132.41 337.034 129.041 335.917C128.011 335.575 127.452 334.462 127.793 333.432C128.135 332.402 129.249 331.843 130.278 332.186C133.529 333.265 136.865 334.199 140.191 334.963C141.249 335.207 141.91 336.261 141.666 337.319C141.456 338.229 140.646 338.846 139.751 338.846L139.753 338.844ZM191.749 338.805C190.843 338.805 190.027 338.174 189.828 337.252C189.6 336.191 190.276 335.146 191.337 334.918C194.67 334.201 198.042 333.343 201.355 332.366C202.396 332.061 203.491 332.654 203.796 333.697C204.103 334.738 203.508 335.83 202.465 336.137C199.057 337.142 195.592 338.024 192.162 338.761C192.023 338.791 191.883 338.807 191.747 338.807L191.749 338.805ZM211.857 332.903C211.061 332.903 210.311 332.414 210.015 331.624C209.636 330.606 210.153 329.474 211.17 329.095C214.382 327.898 217.601 326.57 220.741 325.147C221.728 324.698 222.895 325.138 223.342 326.126C223.79 327.115 223.352 328.28 222.362 328.728C219.142 330.187 215.838 331.55 212.545 332.778C212.318 332.862 212.086 332.901 211.859 332.901L211.857 332.903ZM119.86 332.28C119.602 332.28 119.339 332.228 119.087 332.122C115.905 330.758 112.672 329.229 109.476 327.575C108.511 327.077 108.134 325.891 108.632 324.926C109.131 323.964 110.318 323.583 111.281 324.084C114.392 325.692 117.54 327.181 120.635 328.507C121.632 328.934 122.094 330.091 121.667 331.088C121.347 331.834 120.621 332.28 119.859 332.28H119.86ZM230.95 324.244C230.252 324.244 229.574 323.871 229.219 323.214C228.702 322.259 229.057 321.066 230.012 320.549C232.777 319.054 235.406 317.51 237.828 315.962C238.741 315.38 239.957 315.644 240.542 316.56C241.126 317.474 240.859 318.691 239.944 319.275C237.441 320.875 234.729 322.467 231.881 324.007C231.584 324.169 231.265 324.244 230.948 324.244H230.95ZM101.231 322.663C100.884 322.663 100.531 322.57 100.214 322.378C97.169 320.53 94.1791 318.572 91.3255 316.559C90.438 315.932 90.2266 314.706 90.8528 313.819C91.4789 312.933 92.7046 312.723 93.5921 313.346C96.3722 315.308 99.2853 317.214 102.253 319.015C103.181 319.578 103.477 320.787 102.914 321.715C102.544 322.326 101.896 322.663 101.233 322.663H101.231ZM84.1093 310.555C83.6694 310.555 83.2264 310.407 82.8601 310.105C80.1959 307.91 77.6428 305.631 75.265 303.328C75.0709 303.192 74.9034 303.021 74.772 302.83C74.1521 302.066 74.1912 300.941 74.8941 300.22C75.5452 299.552 76.5564 299.449 77.3203 299.914C80.5043 300.627 83.7351 301.166 86.9347 301.521C88.0132 301.64 88.7912 302.613 88.6722 303.691C88.5533 304.771 87.5906 305.551 86.5027 305.429C85.288 305.294 84.0686 305.135 82.8491 304.95C83.6741 305.665 84.5115 306.375 85.3615 307.074C86.199 307.765 86.318 309.003 85.6276 309.842C85.2394 310.314 84.6759 310.558 84.1093 310.558V310.555ZM97.1799 305.974C96.103 305.974 95.2248 305.105 95.2154 304.025C95.206 302.94 96.0779 302.052 97.1627 302.041C99.9005 302.018 102.665 301.86 105.382 301.57C105.94 301.51 106.595 301.44 107.409 301.343C108.48 301.2 109.465 301.983 109.595 303.06C109.723 304.139 108.954 305.117 107.876 305.246C107.043 305.346 106.37 305.418 105.88 305.47C102.956 305.78 100.062 305.946 97.1987 305.972H97.1815L97.1799 305.974ZM118.005 303.546C117.096 303.546 116.279 302.91 116.085 301.985C115.861 300.923 116.54 299.881 117.603 299.657C121.026 298.937 124.387 298.069 127.591 297.08C128.632 296.764 129.73 297.343 130.049 298.379C130.37 299.417 129.788 300.516 128.75 300.837C125.431 301.86 121.953 302.758 118.412 303.503C118.276 303.533 118.138 303.546 118.005 303.546ZM66.3316 300.765C66.1156 300.765 65.8964 300.729 65.6804 300.654C62.3478 299.483 59.0245 298.104 55.8031 296.56C54.8247 296.089 54.4115 294.916 54.8811 293.936C55.3507 292.958 56.5247 292.548 57.503 293.014C60.5946 294.498 63.7832 295.821 66.9828 296.945C68.0065 297.305 68.545 298.428 68.185 299.452C67.9016 300.261 67.1424 300.767 66.3316 300.767V300.765ZM138.023 297.323C137.261 297.323 136.536 296.876 136.217 296.133C135.788 295.136 136.249 293.98 137.247 293.551C140.485 292.159 143.555 290.605 146.371 288.931C147.302 288.379 148.509 288.684 149.065 289.617C149.619 290.55 149.312 291.757 148.379 292.311C145.416 294.073 142.193 295.705 138.799 297.164C138.546 297.273 138.283 297.324 138.025 297.324L138.023 297.323ZM69.1664 295.89C68.606 295.89 68.0488 295.651 67.6606 295.189C65.2985 292.377 63.143 289.489 61.2536 286.605C60.6588 285.697 60.9124 284.477 61.8203 283.884C62.7282 283.289 63.946 283.543 64.5408 284.451C66.3457 287.204 68.4072 289.968 70.6692 292.662C71.3673 293.493 71.2593 294.733 70.4281 295.431C70.0603 295.74 69.611 295.892 69.1649 295.892L69.1664 295.89ZM47.4613 291.719C47.1076 291.719 46.7507 291.624 46.4282 291.425C43.4118 289.559 40.4595 287.508 37.6528 285.327C36.795 284.662 36.6385 283.427 37.3053 282.57C37.9722 281.714 39.2057 281.558 40.0635 282.223C42.7621 284.316 45.6001 286.289 48.4991 288.081C49.4227 288.653 49.7076 289.864 49.1362 290.786C48.7653 291.388 48.1219 291.718 47.4629 291.718L47.4613 291.719ZM155.932 286.547C155.372 286.547 154.814 286.307 154.426 285.846C153.728 285.014 153.836 283.774 154.667 283.076C157.311 280.856 159.689 278.439 161.735 275.892C162.416 275.046 163.654 274.912 164.498 275.591C165.343 276.271 165.479 277.507 164.798 278.356C162.593 281.1 160.033 283.702 157.194 286.087C156.826 286.397 156.377 286.547 155.931 286.547H155.932ZM30.9312 278.888C30.4413 278.888 29.9498 278.707 29.5678 278.339C27.0006 275.868 24.5462 273.238 22.2764 270.522C21.5798 269.689 21.691 268.449 22.5238 267.754C23.3565 267.057 24.5963 267.167 25.2913 268.001C27.4718 270.608 29.8277 273.133 32.2931 275.507C33.0758 276.258 33.0992 277.503 32.3463 278.286C31.9597 278.686 31.4462 278.89 30.9297 278.89L30.9312 278.888ZM57.7848 278.351C57.0444 278.351 56.3353 277.932 56.0019 277.215C54.4428 273.864 53.1921 270.451 52.2842 267.07C52.0024 266.021 52.6238 264.942 53.6726 264.662C54.7214 264.374 55.7984 265.003 56.0801 266.051C56.9301 269.213 58.1026 272.41 59.5646 275.555C60.0232 276.54 59.5959 277.709 58.6113 278.167C58.3436 278.29 58.0603 278.35 57.7832 278.35L57.7848 278.351ZM168.895 270.286C168.602 270.286 168.306 270.22 168.026 270.082C167.052 269.6 166.653 268.423 167.135 267.449C168.516 264.654 169.624 261.67 170.429 258.58L170.571 258.024C170.834 256.971 171.903 256.329 172.955 256.595C174.009 256.858 174.649 257.926 174.386 258.979L174.236 259.571C173.362 262.921 172.16 266.157 170.66 269.19C170.318 269.883 169.621 270.286 168.896 270.286H168.895ZM17.5209 262.83C16.8838 262.83 16.2592 262.52 15.8804 261.949C13.9128 258.981 12.0985 255.872 10.4878 252.706C9.99471 251.738 10.3798 250.555 11.3472 250.062C12.313 249.567 13.498 249.954 13.9895 250.921C15.5329 253.952 17.272 256.933 19.1567 259.778C19.7562 260.682 19.5089 261.902 18.6041 262.502C18.2707 262.722 17.8935 262.829 17.5193 262.829L17.5209 262.83ZM52.4642 258.218C51.4373 258.218 50.5717 257.42 50.5044 256.38C50.4324 255.261 50.3948 254.124 50.3948 252.999C50.3948 250.511 50.5748 247.995 50.9301 245.52C51.0851 244.445 52.0744 243.699 53.1545 243.853C54.2283 244.008 54.975 245.003 54.82 246.077C54.4913 248.368 54.3238 250.696 54.3238 252.997C54.3238 254.038 54.3582 255.09 54.4256 256.124C54.496 257.208 53.6742 258.142 52.591 258.212C52.5487 258.215 52.5049 258.217 52.4626 258.217L52.4642 258.218ZM173.96 250.106C173.931 250.106 173.902 250.106 173.874 250.104C172.789 250.057 171.949 249.14 171.996 248.055C172.029 247.295 172.044 246.536 172.044 245.777C172.044 243.2 171.856 240.573 171.484 237.963C171.33 236.888 172.077 235.894 173.153 235.74C174.226 235.587 175.222 236.333 175.375 237.409C175.773 240.2 175.975 243.015 175.975 245.775C175.975 246.591 175.958 247.407 175.923 248.224C175.878 249.279 175.007 250.106 173.962 250.106H173.96ZM8.0255 244.189C7.22873 244.189 6.47893 243.701 6.18465 242.91C4.94959 239.601 3.88202 236.164 3.00855 232.695C2.74401 231.642 3.38267 230.574 4.43459 230.309C5.48807 230.048 6.55563 230.683 6.82018 231.737C7.65764 235.065 8.68138 238.362 9.86635 241.536C10.2467 242.553 9.73016 243.685 8.71268 244.066C8.48571 244.15 8.25404 244.189 8.0255 244.189ZM55.3491 237.591C55.1394 237.591 54.9265 237.558 54.7167 237.486C53.6898 237.137 53.1388 236.02 53.4879 234.992C54.6118 231.685 56.041 228.355 57.7378 225.091C58.2403 224.128 59.4253 223.754 60.3895 224.255C61.3522 224.756 61.7279 225.943 61.2254 226.907C59.6209 229.993 58.2701 233.14 57.2087 236.258C56.9317 237.077 56.1662 237.592 55.3475 237.592L55.3491 237.591ZM171.066 229.451C170.236 229.451 169.465 228.922 169.195 228.088C168.165 224.889 166.857 221.732 165.309 218.704C164.814 217.736 165.197 216.553 166.163 216.058C167.129 215.563 168.314 215.947 168.809 216.913C170.454 220.128 171.842 223.483 172.938 226.881C173.271 227.914 172.703 229.022 171.67 229.356C171.47 229.42 171.266 229.451 171.066 229.451ZM2.90368 223.898C1.94099 223.898 1.09883 223.189 0.959514 222.209C0.466429 218.727 0.143968 215.148 0.001521 211.573C-0.0407434 210.488 0.802979 209.573 1.8862 209.531C2.99916 209.494 3.88515 210.333 3.92898 211.416C4.06673 214.86 4.37667 218.306 4.85097 221.656C5.00281 222.732 4.25457 223.726 3.18074 223.878C3.08682 223.892 2.99447 223.898 2.90368 223.898ZM64.9384 219.017C64.5471 219.017 64.1526 218.901 63.8083 218.658C62.9207 218.034 62.7078 216.808 63.3324 215.92C65.3767 213.016 67.6387 210.203 70.054 207.557C70.7866 206.756 72.0295 206.699 72.8309 207.43C73.6324 208.163 73.6887 209.406 72.9561 210.208C70.652 212.731 68.4949 215.415 66.546 218.181C66.1625 218.726 65.5552 219.015 64.9369 219.015L64.9384 219.017ZM161.567 210.856C160.962 210.856 160.365 210.577 159.98 210.051C157.964 207.299 155.729 204.716 153.337 202.374C152.562 201.614 152.548 200.37 153.307 199.593C154.066 198.818 155.309 198.803 156.087 199.563C158.632 202.054 161.01 204.802 163.153 207.728C163.795 208.604 163.604 209.833 162.729 210.475C162.38 210.732 161.973 210.856 161.569 210.856H161.567ZM79.0501 203.57C78.4928 203.57 77.9387 203.333 77.5504 202.874C76.8492 202.046 76.9509 200.806 77.779 200.103C80.545 197.758 83.4534 195.612 86.4213 193.722C87.337 193.138 88.5533 193.409 89.134 194.325C89.7163 195.241 89.4471 196.456 88.5314 197.038C85.7122 198.832 82.9509 200.872 80.3195 203.103C79.9501 203.416 79.4993 203.57 79.0501 203.57ZM2.05995 202.978C2.02239 202.978 1.98325 202.978 1.94568 202.975C0.862462 202.912 0.0343931 201.984 0.0954417 200.899C0.302068 197.292 0.685578 193.719 1.23658 190.28C1.4072 189.209 2.41372 188.478 3.48755 188.648C4.55982 188.819 5.28927 189.827 5.11864 190.9C4.58956 194.209 4.2217 197.65 4.02134 201.124C3.96029 202.17 3.09465 202.978 2.05995 202.978ZM146.61 196.298C146.23 196.298 145.847 196.188 145.508 195.958C142.677 194.037 139.699 192.415 136.66 191.138C135.659 190.716 135.188 189.564 135.609 188.564C136.03 187.562 137.186 187.092 138.183 187.513C141.46 188.893 144.668 190.638 147.714 192.705C148.613 193.314 148.847 194.536 148.237 195.435C147.857 195.995 147.238 196.298 146.609 196.298H146.61ZM96.7056 192.401C95.9496 192.401 95.2295 191.963 94.9055 191.225C94.4687 190.231 94.9211 189.071 95.9136 188.634C99.2837 187.153 102.726 185.981 106.143 185.149C107.198 184.891 108.261 185.539 108.518 186.594C108.774 187.65 108.126 188.713 107.073 188.969C103.88 189.746 100.657 190.845 97.4961 192.233C97.2394 192.346 96.9702 192.399 96.7072 192.399L96.7056 192.401ZM127.402 188.299C127.285 188.299 127.166 188.288 127.047 188.266C124.362 187.776 121.602 187.527 118.847 187.527C118.292 187.518 117.641 187.538 117.038 187.562C115.95 187.621 115.041 186.757 114.998 185.674C114.956 184.589 115.801 183.675 116.886 183.634C117.539 183.609 118.239 183.621 118.847 183.596C121.839 183.596 124.833 183.866 127.751 184.399C128.819 184.595 129.526 185.619 129.332 186.687C129.158 187.635 128.332 188.299 127.401 188.299H127.402ZM5.43641 182.322C5.25953 182.322 5.08108 182.298 4.90263 182.248C3.85697 181.954 3.24962 180.869 3.54234 179.823C4.5019 176.414 5.66025 173.01 6.9861 169.71C7.38997 168.702 8.5358 168.215 9.54388 168.619C10.5504 169.024 11.0388 170.169 10.6349 171.177C9.36074 174.345 8.24778 177.613 7.32735 180.888C7.08316 181.755 6.29422 182.322 5.43641 182.322ZM13.2256 162.912C12.9156 162.912 12.5994 162.839 12.3067 162.682C11.3472 162.173 10.9824 160.984 11.4912 160.025C13.1458 156.907 14.9913 153.824 16.9777 150.861C17.5835 149.96 18.8045 149.718 19.7046 150.324C20.6062 150.928 20.8457 152.149 20.2415 153.051C18.3302 155.902 16.5535 158.867 14.9631 161.866C14.6109 162.532 13.93 162.912 13.2256 162.912ZM24.8749 145.519C24.4335 145.519 23.9905 145.372 23.6242 145.068C22.7883 144.376 22.6693 143.138 23.3612 142.3C25.6091 139.579 28.0275 136.926 30.5493 134.413C31.3179 133.647 32.5639 133.649 33.3294 134.418C34.0964 135.186 34.0932 136.431 33.3247 137.198C30.8921 139.623 28.5597 142.183 26.3917 144.807C26.0035 145.276 25.4416 145.519 24.8765 145.519H24.8749ZM39.7019 130.728C39.1352 130.728 38.5733 130.483 38.1851 130.012C37.4932 129.175 37.6121 127.936 38.4496 127.246C41.1686 125.001 44.0363 122.845 46.9729 120.838C47.8683 120.226 49.0924 120.456 49.7045 121.352C50.3165 122.249 50.0864 123.471 49.191 124.083C46.3515 126.025 43.5793 128.108 40.951 130.277C40.5847 130.579 40.1417 130.728 39.7003 130.728H39.7019ZM56.9959 118.901C56.3087 118.901 55.6403 118.54 55.2802 117.896C54.7496 116.949 55.0861 115.752 56.0332 115.221C59.1075 113.497 62.3086 111.88 65.5474 110.418C66.5367 109.968 67.7013 110.41 68.1474 111.399C68.5951 112.389 68.1552 113.554 67.1659 114C64.0305 115.417 60.9327 116.981 57.9554 118.649C57.6517 118.82 57.3214 118.901 56.9959 118.901ZM76.0884 110.266C75.2791 110.266 74.5199 109.762 74.235 108.956C73.8734 107.932 74.4104 106.809 75.4341 106.448C78.7573 105.273 82.1807 104.223 85.6089 103.324C86.6561 103.049 87.733 103.678 88.0085 104.729C88.284 105.779 87.6548 106.853 86.6044 107.129C83.2812 107.999 79.9642 109.018 76.7443 110.155C76.5267 110.231 76.306 110.267 76.09 110.267L76.0884 110.266Z" fill="#F4B545"/>
<path opacity="0.1" d="M468.302 261.933C468.458 260.67 467.065 259.369 465.205 259.039L334.601 235.884C332.742 235.554 331.092 236.316 330.936 237.579L326.476 273.58C326.32 274.843 327.714 276.145 329.572 276.475L460.177 299.631C462.036 299.96 463.686 299.197 463.842 297.935L468.302 261.933Z" fill="#232323"/>
<path d="M375.806 346.655C374.873 346.655 373.938 346.634 373.005 346.597C371.92 346.553 371.077 345.637 371.121 344.554C371.164 343.469 372.096 342.63 373.163 342.669C376.53 342.807 379.921 342.68 383.322 342.29C384.396 342.163 385.376 342.941 385.498 344.018C385.622 345.097 384.847 346.072 383.77 346.194C381.112 346.5 378.432 346.653 375.806 346.653V346.655ZM362.696 345.302C362.561 345.302 362.425 345.288 362.287 345.26C358.781 344.519 355.304 343.472 351.953 342.149C350.943 341.748 350.449 340.607 350.848 339.597C351.248 338.587 352.39 338.096 353.399 338.492C356.542 339.736 359.808 340.718 363.098 341.413C364.159 341.639 364.839 342.681 364.617 343.743C364.421 344.668 363.605 345.304 362.696 345.304V345.302ZM393.837 344.269C392.963 344.269 392.168 343.685 391.937 342.802C391.661 341.751 392.29 340.677 393.339 340.402C396.575 339.555 399.837 338.465 403.035 337.164C404.043 336.756 405.187 337.241 405.596 338.244C406.004 339.251 405.521 340.397 404.516 340.806C401.16 342.171 397.735 343.315 394.336 344.205C394.169 344.248 394.001 344.269 393.837 344.269ZM343.287 337.659C342.946 337.659 342.6 337.57 342.285 337.382C339.275 335.591 336.309 333.515 333.469 331.218C332.625 330.536 332.496 329.297 333.178 328.454C333.862 327.608 335.099 327.478 335.942 328.162C338.635 330.343 341.446 332.308 344.294 334.005C345.227 334.559 345.533 335.766 344.978 336.699C344.61 337.318 343.957 337.661 343.287 337.661V337.659ZM413.228 336.419C412.537 336.419 411.867 336.054 411.508 335.406C410.982 334.456 411.325 333.26 412.274 332.734C415.238 331.09 418.155 329.246 420.941 327.253C421.822 326.622 423.049 326.825 423.683 327.708C424.314 328.591 424.111 329.82 423.228 330.451C420.319 332.53 417.276 334.454 414.182 336.17C413.88 336.338 413.552 336.417 413.23 336.417L413.228 336.419ZM327 324.551C326.483 324.551 325.966 324.349 325.581 323.946C323.171 321.434 320.827 318.7 318.614 315.821C317.953 314.96 318.115 313.725 318.976 313.064C319.837 312.402 321.069 312.563 321.732 313.424C323.858 316.189 326.106 318.814 328.419 321.222C329.171 322.005 329.146 323.25 328.363 324.003C327.983 324.367 327.491 324.551 327.001 324.551H327ZM430.25 324.258C429.713 324.258 429.178 324.039 428.79 323.608C428.062 322.802 428.127 321.559 428.932 320.832C431.491 318.525 433.916 316.072 436.137 313.539C436.854 312.724 438.096 312.641 438.911 313.357C439.727 314.074 439.808 315.315 439.093 316.131C436.77 318.778 434.239 321.341 431.566 323.751C431.189 324.089 430.72 324.256 430.252 324.256L430.25 324.258ZM437.004 312.579C436.006 312.579 435.15 311.82 435.051 310.804C434.944 309.723 435.735 308.762 436.815 308.656C438.697 308.471 440.589 308.17 442.474 307.755C441.962 307.103 441.901 306.168 442.389 305.443C444.337 302.553 446.044 299.582 447.466 296.61C447.934 295.63 449.108 295.214 450.086 295.687C451.064 296.155 451.479 297.329 451.01 298.307C449.648 301.155 448.039 304 446.221 306.777C446.37 306.732 446.519 306.686 446.667 306.639C447.71 306.32 448.807 306.896 449.131 307.929C449.454 308.966 448.878 310.069 447.841 310.393C444.327 311.491 440.744 312.223 437.194 312.571C437.13 312.577 437.064 312.58 437 312.58L437.004 312.579ZM426.551 312.429C426.467 312.429 426.384 312.422 426.299 312.411C422.858 311.968 419.3 311.137 415.728 309.941C414.698 309.595 414.144 308.482 414.488 307.453C414.834 306.423 415.944 305.867 416.976 306.213C420.307 307.33 423.613 308.103 426.8 308.513C427.877 308.652 428.638 309.637 428.498 310.713C428.372 311.705 427.526 312.429 426.551 312.429ZM314.2 307.965C313.544 307.965 312.902 307.636 312.53 307.04C310.624 303.984 308.867 300.847 307.309 297.714C306.827 296.742 307.221 295.563 308.194 295.079C309.164 294.595 310.344 294.993 310.828 295.964C312.331 298.984 314.023 302.01 315.862 304.959C316.437 305.88 316.156 307.093 315.234 307.668C314.91 307.87 314.55 307.967 314.197 307.967L314.2 307.965ZM456.911 306.429C456.207 306.429 455.526 306.05 455.173 305.387C454.663 304.427 455.028 303.237 455.986 302.728C458.922 301.168 461.785 299.315 464.501 297.222C465.362 296.562 466.597 296.72 467.258 297.579C467.92 298.44 467.76 299.674 466.901 300.336C464.011 302.562 460.961 304.535 457.831 306.199C457.537 306.356 457.221 306.429 456.911 306.429ZM406.74 305.869C406.424 305.869 406.103 305.792 405.806 305.631C402.543 303.863 399.51 301.833 396.791 299.6C395.952 298.912 395.83 297.672 396.52 296.834C397.21 295.993 398.448 295.873 399.286 296.563C401.812 298.638 404.636 300.527 407.679 302.176C408.634 302.694 408.988 303.885 408.47 304.84C408.114 305.498 407.438 305.87 406.74 305.87V305.869ZM473.469 293.722C472.982 293.722 472.496 293.542 472.115 293.18C471.328 292.432 471.297 291.189 472.043 290.401C474.352 287.968 476.525 285.316 478.499 282.519C479.125 281.634 480.349 281.42 481.238 282.046C482.126 282.672 482.337 283.898 481.711 284.786C479.627 287.738 477.334 290.539 474.894 293.108C474.509 293.515 473.989 293.72 473.469 293.72V293.722ZM390.755 292.54C390.161 292.54 389.574 292.272 389.188 291.763C386.896 288.745 385.091 285.512 383.822 282.152C383.437 281.136 383.95 280.001 384.964 279.618C385.979 279.236 387.114 279.745 387.499 280.761C388.634 283.765 390.255 286.667 392.318 289.382C392.974 290.248 392.805 291.48 391.941 292.137C391.586 292.407 391.168 292.538 390.753 292.538L390.755 292.54ZM452.932 289.628C452.76 289.628 452.584 289.606 452.411 289.557C451.363 289.271 450.748 288.188 451.035 287.142C451.955 283.787 452.498 280.458 452.647 277.247C452.697 276.164 453.58 275.333 454.702 275.375C455.787 275.425 456.625 276.346 456.574 277.431C456.412 280.931 455.823 284.548 454.826 288.181C454.586 289.055 453.794 289.628 452.932 289.628ZM485.538 276.662C485.234 276.662 484.926 276.592 484.638 276.441C483.674 275.943 483.297 274.758 483.794 273.794C485.341 270.799 486.714 267.646 487.874 264.426C488.243 263.403 489.369 262.874 490.389 263.242C491.411 263.612 491.94 264.737 491.573 265.758C490.355 269.14 488.911 272.449 487.285 275.597C486.936 276.274 486.249 276.662 485.538 276.662ZM383.54 273.21C382.497 273.21 381.629 272.391 381.577 271.339C381.547 270.733 381.532 270.126 381.532 269.52C381.532 266.52 381.893 263.45 382.609 260.394C382.856 259.334 383.922 258.678 384.969 258.927C386.026 259.175 386.683 260.232 386.436 261.288C385.791 264.05 385.464 266.819 385.464 269.52C385.464 270.063 385.478 270.605 385.505 271.148C385.558 272.233 384.722 273.154 383.635 273.207C383.603 273.207 383.571 273.208 383.54 273.208V273.21ZM453.779 268.88C452.861 268.88 452.041 268.233 451.853 267.298C451.212 264.091 450.222 260.841 448.911 257.637C448.499 256.632 448.981 255.485 449.986 255.073C450.989 254.664 452.138 255.143 452.55 256.149C453.954 259.583 455.018 263.075 455.709 266.528C455.922 267.593 455.23 268.629 454.167 268.842C454.037 268.867 453.907 268.88 453.779 268.88ZM388.131 252.989C387.831 252.989 387.527 252.92 387.242 252.776C386.275 252.283 385.888 251.101 386.381 250.132C388.042 246.868 390.071 243.804 392.412 241.03C393.112 240.2 394.352 240.095 395.183 240.797C396.013 241.498 396.116 242.738 395.416 243.568C393.269 246.11 391.409 248.919 389.886 251.914C389.538 252.596 388.848 252.989 388.133 252.989H388.131ZM445.914 249.556C445.266 249.556 444.631 249.237 444.257 248.65C442.375 245.709 440.274 243.056 438.017 240.767C437.255 239.994 437.264 238.749 438.036 237.987C438.809 237.224 440.054 237.232 440.816 238.005C443.267 240.49 445.537 243.358 447.567 246.53C448.153 247.444 447.885 248.661 446.971 249.244C446.642 249.454 446.276 249.554 445.914 249.554V249.556ZM401.595 237.168C400.976 237.168 400.371 236.877 399.987 236.335C399.361 235.447 399.574 234.221 400.46 233.595C403.634 231.357 406.972 229.705 410.383 228.687C411.422 228.38 412.518 228.967 412.828 230.009C413.138 231.05 412.547 232.144 411.507 232.454C408.504 233.351 405.55 234.815 402.725 236.808C402.381 237.05 401.985 237.168 401.593 237.168H401.595ZM431.158 234.949C430.832 234.949 430.504 234.87 430.2 234.697C427.221 233.03 424.147 231.989 421.057 231.605C419.98 231.471 419.214 230.489 419.349 229.412C419.484 228.335 420.456 227.569 421.542 227.704C425.138 228.152 428.697 229.351 432.121 231.269C433.068 231.798 433.406 232.997 432.875 233.943C432.515 234.586 431.847 234.949 431.158 234.949Z" fill="#F4B545"/>
<path opacity="0.1" d="M174.11 55.9878L25.8125 75.7764L61.767 103.051L62.3289 153.249L93.3119 126.929L110.722 140.058L174.11 55.9878Z" fill="#232323"/>
<path d="M65.5659 150.204L64.7441 76.8783L177.347 52.9426L65.5659 150.204Z" fill="url(#paint4_linear_233_863)"/>
<path d="M65.2459 100.191C65.8157 99.9044 177.345 52.9426 177.345 52.9426L29.0488 72.7328L65.2459 100.191Z" fill="url(#paint5_linear_233_863)"/>
<path d="M77.5398 109.549L65.5664 150.203L116.919 106.579L77.5398 109.549Z" fill="url(#paint6_linear_233_863)"/>
<path d="M77.5352 109.55L113.955 137.014L177.343 52.9426L77.5352 109.55Z" fill="url(#paint7_linear_233_863)"/>
<path d="M332.695 270.947L332.695 270.947L463.331 293.963C464.154 294.108 464.902 293.999 465.44 293.742C465.977 293.486 466.253 293.114 466.302 292.729L466.302 292.729L470.96 255.834C471.01 255.437 470.829 254.962 470.359 254.513C469.894 254.069 469.194 253.705 468.372 253.56L468.372 253.56L337.736 230.545C337.736 230.545 337.736 230.545 337.736 230.545C336.913 230.4 336.165 230.509 335.627 230.765C335.09 231.022 334.814 231.393 334.765 231.779L334.765 231.779L330.107 268.674L332.695 270.947ZM332.695 270.947C331.873 270.802 331.173 270.439 330.708 269.995M332.695 270.947L330.708 269.995M330.708 269.995C330.239 269.546 330.057 269.07 330.107 268.674L330.708 269.995Z" fill="#1E2128" stroke="#F6C723" stroke-width="1.21405"/>
<path opacity="0.1" d="M468.549 190.778C468.428 189.285 466.781 188.142 464.889 188.237L331.96 194.9C330.067 194.994 328.617 196.293 328.738 197.786L332.17 240.363C332.291 241.856 333.938 242.999 335.83 242.905L468.76 236.242C470.652 236.147 472.103 234.848 471.982 233.356L468.549 190.778Z" fill="#232323"/>
<path d="M339.52 238.409L339.52 238.409C337.825 238.494 336.591 237.476 336.507 236.442L333.085 194.148L333.085 194.148C333.003 193.141 334.028 192.022 335.722 191.936C335.722 191.936 335.722 191.936 335.722 191.936L468.24 185.318L468.24 185.318C469.935 185.233 471.169 186.25 471.253 187.285C471.253 187.285 471.253 187.285 471.253 187.285L474.675 229.579L474.675 229.579C474.757 230.587 473.732 231.706 472.038 231.791L339.52 238.409Z" fill="#3B99FC" stroke="#FFF6F8" stroke-width="1.21405"/>
<path opacity="0.1" d="M369.69 223.276C374.112 217.528 373.037 209.284 367.291 204.862C361.544 200.441 353.301 201.517 348.879 207.265C344.458 213.014 345.532 221.258 351.278 225.679C357.025 230.1 365.268 229.025 369.69 223.276Z" fill="#FEF1F2"/>
<path opacity="0.1" d="M363.067 264.04C368.526 259.268 369.083 250.973 364.311 245.512C359.539 240.052 351.244 239.494 345.785 244.266C340.326 249.039 339.769 257.334 344.541 262.794C349.313 268.255 357.608 268.813 363.067 264.04Z" fill="#FEF1F2"/>
<path opacity="0.1" d="M479.176 177.443L466.502 138.077C466.058 136.697 464.197 135.842 462.365 136.177L333.776 159.692C331.944 160.027 330.81 161.429 331.255 162.809L343.929 202.176C344.373 203.556 346.234 204.411 348.066 204.076L476.655 180.561C478.487 180.226 479.621 178.823 479.176 177.443Z" fill="#232323"/>
<path d="M336.364 157.019L465.405 133.661C467.073 133.359 468.469 134.152 468.771 135.079L481.491 174.179C481.792 175.106 481.038 176.288 479.37 176.59L350.33 199.948C348.662 200.25 347.265 199.457 346.964 198.53L334.244 159.43C333.942 158.503 334.696 157.321 336.364 157.019Z" fill="url(#paint8_linear_233_863)" stroke="white" stroke-width="1.21405"/>
<path opacity="0.1" d="M373.338 181.962C377.76 176.213 376.686 167.969 370.939 163.548C365.192 159.127 356.949 160.202 352.528 165.951C348.106 171.699 349.18 179.943 354.927 184.365C360.674 188.786 368.917 187.71 373.338 181.962Z" fill="#FEF1F2"/>
<path d="M369.999 174.766C370.476 176.516 369.665 178.081 367.89 178.741L362.187 180.862C360.438 181.512 358.491 180.619 357.841 178.869L356.193 174.429C355.553 172.704 356.145 171.112 357.685 170.308C357.841 170.222 358.007 170.145 358.184 170.08L363.888 167.959C364.053 167.898 364.213 167.845 364.375 167.814C365.955 167.428 367.375 168.106 368.078 169.591C368.165 169.768 368.07 169.977 367.886 170.045L366.904 170.41C366.295 170.636 365.818 171.081 365.568 171.65C365.261 172.299 365.265 173.048 365.567 173.686C366.097 174.803 367.447 175.333 368.651 174.885L369.558 174.548C369.741 174.48 369.95 174.575 369.999 174.766Z" fill="white"/>
<path d="M369.45 171.283L369.935 172.589C370.064 172.938 369.892 173.327 369.541 173.472L368.299 173.933C367.615 174.188 366.802 173.92 366.49 173.256C366.304 172.871 366.317 172.44 366.487 172.081C366.632 171.753 366.903 171.493 367.258 171.361L368.576 170.871C368.936 170.752 369.32 170.934 369.45 171.283Z" fill="white"/>
<path d="M365.718 216.814C365.693 218.501 364.564 219.691 362.808 219.823L357.162 220.246C355.43 220.376 353.92 219.075 353.79 217.342L353.461 212.947C353.333 211.239 354.273 209.969 355.857 209.648C356.018 209.611 356.187 209.586 356.363 209.573L362.008 209.149C362.172 209.137 362.329 209.131 362.481 209.145C363.994 209.209 365.089 210.181 365.334 211.69C365.366 211.871 365.227 212.033 365.045 212.047L364.073 212.12C363.471 212.165 362.93 212.439 362.559 212.883C362.117 213.384 361.928 214.055 362.033 214.703C362.219 215.839 363.29 216.661 364.482 216.572L365.379 216.504C365.561 216.491 365.723 216.63 365.718 216.814Z" fill="white"/>
<path d="M366.125 213.557L366.222 214.85C366.247 215.196 365.993 215.499 365.642 215.538L364.413 215.63C363.735 215.681 363.077 215.231 362.97 214.558C362.902 214.165 363.025 213.783 363.269 213.506C363.484 213.25 363.793 213.088 364.145 213.062L365.449 212.964C365.802 212.95 366.099 213.212 366.125 213.557Z" fill="white"/>
<path d="M360.433 256.923C360.079 258.574 358.74 259.519 356.991 259.305L351.372 258.615C349.648 258.404 348.421 256.832 348.632 255.108L349.168 250.733C349.376 249.033 350.546 247.972 352.163 247.967C352.328 247.962 352.498 247.97 352.673 247.991L358.293 248.681C358.455 248.701 358.61 248.726 358.757 248.77C360.228 249.128 361.112 250.296 361.058 251.824C361.054 252.007 360.886 252.139 360.705 252.117L359.737 251.998C359.138 251.925 358.554 252.088 358.103 252.451C357.572 252.855 357.255 253.476 357.232 254.133C357.193 255.283 358.082 256.299 359.269 256.444L360.161 256.554C360.342 256.576 360.474 256.744 360.433 256.923Z" fill="#F6C723"/>
<path d="M361.468 253.809L361.311 255.097C361.269 255.44 360.96 255.688 360.608 255.657L359.384 255.507C358.71 255.424 358.152 254.855 358.179 254.173C358.19 253.775 358.385 253.424 358.678 253.2C358.938 252.991 359.274 252.893 359.623 252.936L360.922 253.095C361.27 253.151 361.511 253.465 361.468 253.809Z" fill="#F6C723"/>
<path opacity="0.1" d="M521.918 268.233C536.874 253.275 536.874 229.023 521.918 214.065C506.961 199.107 482.713 199.107 467.756 214.065C452.8 229.023 452.8 253.275 467.756 268.233C482.713 283.192 506.961 283.192 521.918 268.233Z" fill="#232323"/>
<path d="M502.976 274.88C524.127 274.88 541.273 257.731 541.273 236.577C541.273 215.423 524.127 198.275 502.976 198.275C481.824 198.275 464.678 215.423 464.678 236.577C464.678 257.731 481.824 274.88 502.976 274.88Z" fill="url(#paint9_linear_233_863)"/>
<path fill-rule="evenodd" clip-rule="evenodd" d="M494.671 218.414H500.71L498.977 226.324L513.069 226.3L514.796 218.414H520.835L519.11 226.29L523.454 226.283V232.185L517.817 232.194L515.801 241.401L520.436 241.393V247.295L514.508 247.305L512.783 255.181H506.744L508.467 247.315L494.375 247.338L492.658 255.181H486.619L488.334 247.348L482.828 247.357L482.828 241.456L489.627 241.444L491.644 232.237L485.845 232.247L485.845 226.345L492.936 226.334L494.671 218.414ZM509.76 241.411L511.702 232.54L504.043 236.33C503.779 236.461 503.464 236.434 503.226 236.261L497.683 232.234L495.668 241.434L509.76 241.411ZM499.813 232.281L503.836 233.918C504.006 233.987 504.194 233.995 504.369 233.941L509.73 232.281H499.813Z" fill="#FFF6F8"/>
<path d="M390.412 24.2308L394.55 22.0547C395.488 21.5616 396.584 22.3584 396.405 23.4026L395.615 28.0116C395.544 28.4265 395.68 28.8492 395.983 29.1435L399.331 32.4077C400.09 33.1466 399.671 34.4366 398.622 34.5885L393.995 35.2617C393.578 35.3227 393.218 35.5842 393.032 35.9615L390.962 40.1556C390.493 41.1059 389.139 41.1059 388.669 40.1556L386.6 35.9615C386.414 35.5842 386.054 35.3227 385.637 35.2617L381.01 34.5885C379.961 34.4366 379.543 33.1482 380.301 32.4077L383.649 29.1435C383.95 28.8492 384.087 28.4265 384.017 28.0116L383.227 23.4026C383.048 22.3584 384.144 21.5616 385.081 22.0547L389.22 24.2308C389.593 24.4265 390.037 24.4265 390.41 24.2308H390.412Z" fill="url(#paint10_linear_233_863)"/>
<path d="M53.7411 357.173C47.6738 357.173 42.7383 352.237 42.7383 346.169C42.7383 340.101 47.6738 335.163 53.7411 335.163C59.8084 335.163 64.7455 340.101 64.7455 346.169C64.7455 352.237 59.8084 357.173 53.7411 357.173ZM53.7411 338.191C49.3425 338.191 45.7657 341.77 45.7657 346.169C45.7657 350.568 49.3441 354.145 53.7411 354.145C58.1382 354.145 61.7181 350.567 61.7181 346.169C61.7181 341.771 58.1397 338.191 53.7411 338.191Z" fill="url(#paint11_linear_233_863)"/>
<path d="M57.7022 350.132C59.8907 347.944 59.8907 344.395 57.7022 342.206C55.5137 340.017 51.9655 340.017 49.777 342.206C47.5886 344.395 47.5885 347.944 49.777 350.132C51.9655 352.321 55.5137 352.321 57.7022 350.132Z" fill="url(#paint12_linear_233_863)"/>
<path d="M281.245 411.914C284.038 411.914 286.303 409.65 286.303 406.856C286.303 404.063 284.038 401.798 281.245 401.798C278.452 401.798 276.188 404.063 276.188 406.856C276.188 409.65 278.452 411.914 281.245 411.914Z" fill="url(#paint13_linear_233_863)"/>
<path d="M197.29 10.1166C200.083 10.1166 202.348 7.85191 202.348 5.05829C202.348 2.26468 200.083 0 197.29 0C194.497 0 192.232 2.26468 192.232 5.05829C192.232 7.85191 194.497 10.1166 197.29 10.1166Z" fill="url(#paint14_linear_233_863)"/>
<path d="M385.67 170.827C385.423 169.532 385.448 168.479 385.744 167.67C386.046 166.852 386.733 166.34 387.804 166.136C388.875 165.932 389.697 166.156 390.271 166.807C390.852 167.449 391.265 168.418 391.511 169.714C391.761 171.025 391.735 172.093 391.434 172.919C391.14 173.735 390.457 174.246 389.386 174.45C388.315 174.654 387.489 174.431 386.907 173.781C386.331 173.123 385.919 172.138 385.67 170.827ZM390.253 169.954C390.138 169.347 389.999 168.842 389.837 168.438C389.682 168.033 389.46 167.722 389.17 167.506C388.879 167.282 388.498 167.215 388.026 167.305C387.554 167.395 387.224 167.597 387.036 167.913C386.846 168.22 386.75 168.592 386.747 169.027C386.752 169.461 386.812 169.981 386.928 170.588C387.048 171.217 387.186 171.738 387.342 172.15C387.498 172.563 387.721 172.877 388.01 173.094C388.307 173.309 388.692 173.372 389.163 173.282C389.635 173.192 389.966 172.993 390.156 172.685C390.353 172.376 390.449 172 390.442 171.559C390.436 171.118 390.373 170.583 390.253 169.954ZM395.889 169.986L398.485 172.739L397.036 173.015L395.3 171.169L394.441 173.51L393.104 173.765L394.525 170.339L391.927 167.574L393.376 167.298L395.112 169.144L395.971 166.803L397.308 166.549L395.889 169.986ZM398.424 169.538C398.303 168.901 398.324 168.319 398.487 167.791C398.657 167.254 398.945 166.811 399.352 166.462C399.759 166.113 400.258 165.882 400.85 165.769C401.599 165.626 402.251 165.688 402.806 165.955C403.367 166.213 403.797 166.655 404.095 167.281L402.713 167.544C402.542 167.259 402.317 167.053 402.037 166.928C401.757 166.803 401.43 166.776 401.055 166.847C400.531 166.947 400.147 167.214 399.904 167.649C399.667 168.074 399.611 168.62 399.738 169.287C399.865 169.954 400.118 170.445 400.496 170.761C400.882 171.075 401.337 171.183 401.861 171.083C402.602 170.942 403.031 170.522 403.147 169.825L404.529 169.562C404.468 170.225 404.227 170.791 403.804 171.26C403.379 171.721 402.8 172.021 402.066 172.161C401.475 172.274 400.925 172.243 400.419 172.068C399.91 171.885 399.48 171.579 399.126 171.15C398.779 170.712 398.545 170.174 398.424 169.538ZM404.504 164.316L404.281 163.147L406.618 162.702L408.176 170.892L406.885 171.138L405.549 164.117L404.504 164.316ZM411.108 168.028C411.254 168.388 411.469 168.642 411.753 168.79C412.038 168.938 412.389 168.972 412.809 168.892C413.341 168.79 413.69 168.506 413.857 168.04C414.025 167.573 414.012 166.834 413.82 165.823C413.689 166.112 413.472 166.359 413.169 166.564C412.873 166.76 412.534 166.895 412.152 166.968C411.665 167.061 411.205 167.047 410.771 166.928C410.335 166.802 409.964 166.566 409.658 166.221C409.358 165.866 409.154 165.409 409.047 164.847C408.891 164.023 409.006 163.322 409.392 162.744C409.785 162.157 410.405 161.782 411.251 161.621C412.269 161.427 413.057 161.63 413.614 162.23C414.176 162.822 414.591 163.817 414.857 165.218C415.041 166.184 415.109 166.99 415.061 167.636C415.021 168.28 414.832 168.797 414.495 169.187C414.158 169.578 413.637 169.84 412.933 169.974C412.132 170.127 411.474 170.035 410.96 169.698C410.446 169.361 410.102 168.88 409.928 168.253L411.108 168.028ZM412.171 165.846C412.621 165.761 412.946 165.555 413.148 165.229C413.356 164.895 413.416 164.495 413.328 164.031C413.229 163.514 413.014 163.14 412.683 162.908C412.358 162.667 411.959 162.592 411.488 162.682C411.016 162.772 410.67 162.993 410.45 163.345C410.236 163.689 410.174 164.1 410.265 164.58C410.352 165.037 410.555 165.39 410.875 165.639C411.2 165.88 411.632 165.949 412.171 165.846ZM417.767 169.146C417.535 169.19 417.325 169.148 417.138 169.021C416.951 168.894 416.835 168.714 416.791 168.482C416.747 168.25 416.788 168.04 416.916 167.853C417.043 167.665 417.223 167.55 417.455 167.505C417.68 167.463 417.886 167.505 418.073 167.632C418.26 167.76 418.376 167.939 418.42 168.171C418.464 168.404 418.423 168.613 418.295 168.801C418.168 168.988 417.992 169.103 417.767 169.146ZM420.477 168.629C420.245 168.674 420.035 168.632 419.848 168.505C419.661 168.377 419.545 168.198 419.501 167.965C419.457 167.733 419.498 167.524 419.626 167.336C419.753 167.149 419.933 167.033 420.165 166.989C420.39 166.946 420.595 166.988 420.783 167.116C420.97 167.243 421.086 167.423 421.13 167.655C421.174 167.887 421.132 168.097 421.005 168.284C420.878 168.471 420.702 168.586 420.477 168.629ZM423.187 168.113C422.955 168.157 422.745 168.116 422.558 167.988C422.37 167.861 422.255 167.681 422.211 167.449C422.166 167.217 422.208 167.007 422.335 166.82C422.463 166.633 422.643 166.517 422.875 166.473C423.099 166.43 423.305 166.472 423.493 166.599C423.68 166.727 423.795 166.906 423.84 167.139C423.884 167.371 423.842 167.58 423.715 167.768C423.587 167.955 423.411 168.07 423.187 168.113ZM425.897 167.596C425.664 167.641 425.455 167.599 425.268 167.472C425.08 167.344 424.965 167.165 424.92 166.933C424.876 166.7 424.918 166.491 425.045 166.303C425.173 166.116 425.352 166 425.584 165.956C425.809 165.913 426.015 165.956 426.202 166.083C426.39 166.21 426.505 166.39 426.549 166.622C426.594 166.854 426.552 167.064 426.425 167.251C426.297 167.439 426.121 167.554 425.897 167.596ZM428.606 167.08C428.374 167.124 428.165 167.083 427.977 166.955C427.79 166.828 427.674 166.648 427.63 166.416C427.586 166.184 427.628 165.974 427.755 165.787C427.882 165.6 428.062 165.484 428.294 165.44C428.519 165.397 428.725 165.439 428.912 165.566C429.099 165.694 429.215 165.873 429.259 166.106C429.303 166.338 429.262 166.548 429.134 166.735C429.007 166.922 428.831 167.037 428.606 167.08ZM431.183 162.072C430.33 161.831 429.824 161.291 429.664 160.452C429.587 160.047 429.618 159.657 429.756 159.282C429.894 158.906 430.147 158.582 430.514 158.311C430.88 158.031 431.355 157.836 431.939 157.725C432.516 157.615 433.026 157.622 433.469 157.748C433.918 157.864 434.276 158.071 434.542 158.37C434.808 158.668 434.98 159.02 435.057 159.424C435.137 159.844 435.099 160.235 434.943 160.598C434.793 160.953 434.558 161.25 434.239 161.489C434.696 161.565 435.082 161.759 435.398 162.072C435.712 162.377 435.914 162.769 436.006 163.248C436.098 163.735 436.057 164.189 435.881 164.611C435.705 165.032 435.415 165.386 435.012 165.673C434.608 165.959 434.126 166.156 433.564 166.263C433.002 166.37 432.481 166.365 432.001 166.247C431.528 166.127 431.132 165.904 430.814 165.576C430.496 165.249 430.29 164.842 430.198 164.355C430.105 163.868 430.149 163.425 430.329 163.026C430.509 162.627 430.794 162.309 431.183 162.072ZM433.862 159.815C433.782 159.395 433.59 159.098 433.285 158.924C432.98 158.749 432.599 158.705 432.143 158.792C431.693 158.878 431.359 159.058 431.139 159.332C430.92 159.607 430.851 159.958 430.932 160.385C431.003 160.759 431.197 161.041 431.512 161.229C431.833 161.408 432.207 161.457 432.634 161.376C433.061 161.295 433.39 161.108 433.622 160.815C433.853 160.523 433.933 160.189 433.862 159.815ZM432.818 162.342C432.324 162.436 431.943 162.637 431.675 162.944C431.414 163.242 431.327 163.62 431.413 164.077C431.495 164.504 431.711 164.823 432.062 165.036C432.411 165.241 432.844 165.294 433.361 165.196C433.87 165.099 434.245 164.888 434.486 164.562C434.734 164.236 434.819 163.862 434.739 163.443C434.653 162.994 434.433 162.675 434.079 162.486C433.733 162.296 433.312 162.248 432.818 162.342ZM438.156 163.374C438.757 162.615 439.226 161.998 439.562 161.523C439.904 161.038 440.173 160.552 440.367 160.065C440.562 159.578 440.618 159.117 440.535 158.683C440.45 158.233 440.274 157.902 440.008 157.689C439.75 157.474 439.393 157.41 438.936 157.497C438.494 157.582 438.176 157.79 437.983 158.121C437.797 158.444 437.74 158.843 437.815 159.317L436.58 159.553C436.44 158.695 436.57 157.995 436.972 157.453C437.379 156.901 437.961 156.554 438.717 156.41C439.534 156.254 440.213 156.357 440.755 156.72C441.305 157.081 441.651 157.636 441.794 158.385C441.896 158.924 441.857 159.471 441.675 160.025C441.5 160.571 441.259 161.079 440.952 161.549C440.652 162.01 440.259 162.554 439.773 163.182L439.353 163.728L442.914 163.049L443.117 164.117L437.657 165.157L437.48 164.225L438.156 163.374ZM446.437 157.081C446.909 156.991 447.347 157.012 447.753 157.144C448.166 157.275 448.515 157.519 448.8 157.876C449.093 158.232 449.293 158.69 449.4 159.252L450.094 162.903L448.825 163.145L448.166 159.685C448.061 159.131 447.842 158.734 447.509 158.495C447.175 158.248 446.768 158.17 446.289 158.261C445.81 158.353 445.456 158.575 445.229 158.929C445.007 159.274 444.949 159.724 445.055 160.278L445.713 163.738L444.432 163.982L442.85 155.669L444.131 155.424L444.672 158.267C444.839 157.963 445.074 157.709 445.377 157.504C445.687 157.297 446.04 157.156 446.437 157.081ZM450.707 159.55C450.588 158.928 450.611 158.354 450.774 157.826C450.945 157.296 451.227 156.858 451.619 156.512C452.017 156.157 452.486 155.928 453.025 155.825C453.512 155.732 453.953 155.749 454.35 155.875C454.752 155.993 455.089 156.173 455.361 156.416L455.19 155.517L456.482 155.271L457.659 161.461L456.368 161.708L456.192 160.786C456.031 161.12 455.781 161.42 455.444 161.686C455.106 161.952 454.698 162.131 454.219 162.222C453.687 162.323 453.174 162.281 452.681 162.096C452.187 161.903 451.762 161.588 451.407 161.151C451.058 160.705 450.825 160.172 450.707 159.55ZM455.778 158.607C455.696 158.18 455.536 157.826 455.296 157.546C455.064 157.264 454.79 157.068 454.474 156.958C454.158 156.847 453.836 156.823 453.506 156.886C453.176 156.949 452.885 157.09 452.632 157.309C452.377 157.52 452.19 157.8 452.07 158.149C451.956 158.489 451.94 158.873 452.021 159.299C452.102 159.726 452.26 160.084 452.493 160.374C452.734 160.662 453.013 160.864 453.331 160.982C453.654 161.092 453.977 161.115 454.299 161.054C454.629 160.991 454.92 160.85 455.173 160.631C455.426 160.412 455.609 160.129 455.722 159.782C455.84 159.425 455.859 159.034 455.778 158.607ZM457.669 154.183L457.446 153.015L459.783 152.57L461.341 160.76L460.049 161.006L458.713 153.984L457.669 154.183Z" fill="white"/>
<path d="M177.555 104.834C178.798 104.834 179.795 105.248 180.546 106.077C181.297 106.893 181.673 108.019 181.673 109.457V115.789H178.37V109.903C178.37 109.178 178.183 108.615 177.807 108.213C177.432 107.812 176.926 107.611 176.292 107.611C175.657 107.611 175.152 107.812 174.777 108.213C174.401 108.615 174.213 109.178 174.213 109.903V115.789H170.892V101.415H174.213V106.407C174.55 105.928 175.01 105.546 175.593 105.261C176.175 104.976 176.829 104.834 177.555 104.834ZM194.198 110.195C194.198 110.506 194.179 110.829 194.14 111.166H186.623C186.674 111.839 186.888 112.357 187.264 112.72C187.652 113.07 188.125 113.245 188.682 113.245C189.51 113.245 190.087 112.895 190.41 112.196H193.946C193.764 112.908 193.434 113.549 192.955 114.119C192.489 114.688 191.9 115.135 191.187 115.459C190.475 115.783 189.679 115.945 188.798 115.945C187.736 115.945 186.791 115.718 185.962 115.265C185.133 114.811 184.486 114.164 184.02 113.322C183.554 112.48 183.32 111.496 183.32 110.37C183.32 109.243 183.547 108.259 184 107.417C184.466 106.575 185.114 105.928 185.943 105.475C186.772 105.021 187.723 104.795 188.798 104.795C189.847 104.795 190.78 105.015 191.595 105.455C192.411 105.895 193.046 106.524 193.499 107.339C193.965 108.155 194.198 109.107 194.198 110.195ZM190.799 109.321C190.799 108.751 190.605 108.298 190.216 107.961C189.828 107.624 189.342 107.456 188.759 107.456C188.203 107.456 187.73 107.618 187.341 107.942C186.966 108.265 186.733 108.725 186.642 109.321H190.799ZM199.272 101.415V115.789H195.951V101.415H199.272ZM205.001 101.415V115.789H201.679V101.415H205.001ZM212.342 115.945C211.28 115.945 210.322 115.718 209.467 115.265C208.626 114.811 207.959 114.164 207.467 113.322C206.987 112.48 206.748 111.496 206.748 110.37C206.748 109.256 206.994 108.278 207.486 107.436C207.978 106.582 208.651 105.928 209.506 105.475C210.361 105.021 211.319 104.795 212.381 104.795C213.443 104.795 214.401 105.021 215.256 105.475C216.111 105.928 216.784 106.582 217.276 107.436C217.768 108.278 218.014 109.256 218.014 110.37C218.014 111.483 217.762 112.468 217.257 113.322C216.765 114.164 216.085 114.811 215.217 115.265C214.362 115.718 213.404 115.945 212.342 115.945ZM212.342 113.07C212.977 113.07 213.514 112.837 213.954 112.37C214.408 111.904 214.634 111.237 214.634 110.37C214.634 109.502 214.414 108.835 213.974 108.369C213.547 107.903 213.016 107.67 212.381 107.67C211.734 107.67 211.196 107.903 210.769 108.369C210.341 108.822 210.128 109.489 210.128 110.37C210.128 111.237 210.335 111.904 210.749 112.37C211.177 112.837 211.708 113.07 212.342 113.07Z" fill="#E14C3B"/>
<path d="M383.289 214.008C383.189 212.693 383.332 211.649 383.716 210.878C384.108 210.099 384.848 209.668 385.935 209.585C387.022 209.502 387.814 209.817 388.312 210.528C388.817 211.231 389.119 212.241 389.219 213.556C389.32 214.886 389.175 215.945 388.784 216.732C388.4 217.51 387.664 217.941 386.577 218.024C385.49 218.107 384.694 217.793 384.188 217.082C383.69 216.363 383.39 215.338 383.289 214.008ZM387.942 213.653C387.895 213.037 387.814 212.52 387.698 212.1C387.589 211.681 387.403 211.347 387.14 211.099C386.876 210.844 386.504 210.735 386.025 210.771C385.546 210.808 385.195 210.972 384.973 211.264C384.75 211.549 384.613 211.907 384.562 212.339C384.518 212.771 384.52 213.295 384.566 213.91C384.615 214.549 384.694 215.082 384.803 215.51C384.912 215.937 385.098 216.275 385.362 216.522C385.633 216.769 386.008 216.874 386.487 216.838C386.966 216.801 387.317 216.641 387.54 216.356C387.77 216.071 387.907 215.709 387.95 215.27C387.993 214.831 387.99 214.292 387.942 213.653ZM393.539 214.316L395.811 217.343L394.34 217.455L392.821 215.426L391.706 217.656L390.349 217.759L392.143 214.514L389.871 211.476L391.342 211.364L392.861 213.393L393.976 211.163L395.333 211.06L393.539 214.316ZM396.108 214.155C396.059 213.509 396.145 212.932 396.366 212.426C396.595 211.912 396.931 211.504 397.374 211.202C397.818 210.901 398.34 210.727 398.94 210.682C399.7 210.624 400.342 210.758 400.863 211.086C401.392 211.405 401.77 211.892 401.995 212.548L400.593 212.655C400.455 212.352 400.254 212.122 399.99 211.967C399.726 211.811 399.404 211.747 399.024 211.776C398.491 211.817 398.08 212.039 397.79 212.444C397.506 212.84 397.39 213.377 397.442 214.053C397.493 214.73 397.689 215.246 398.03 215.603C398.378 215.958 398.818 216.116 399.351 216.076C400.103 216.018 400.576 215.65 400.769 214.97L402.172 214.863C402.038 215.515 401.734 216.051 401.262 216.469C400.788 216.88 400.179 217.113 399.434 217.17C398.833 217.216 398.291 217.124 397.807 216.893C397.323 216.654 396.929 216.302 396.626 215.836C396.33 215.361 396.157 214.801 396.108 214.155ZM403.156 215.04L403.081 214.059L406.494 208.271L408.068 208.151L408.475 213.499L409.535 213.418L409.621 214.547L408.561 214.628L408.693 216.361L407.415 216.459L407.284 214.725L403.156 215.04ZM406.948 209.567L404.563 213.797L407.255 213.592L406.948 209.567ZM414.814 209.472C414.704 209.129 414.532 208.878 414.299 208.72C414.065 208.562 413.75 208.498 413.355 208.528C412.754 208.574 412.323 208.84 412.062 209.326C411.8 209.805 411.702 210.577 411.768 211.643C411.94 211.293 412.21 211.012 412.576 210.801C412.942 210.59 413.346 210.467 413.787 210.433C414.288 210.395 414.738 210.472 415.135 210.663C415.538 210.847 415.862 211.136 416.107 211.53C416.358 211.924 416.506 212.405 416.549 212.976C416.59 213.508 416.519 213.991 416.338 214.425C416.165 214.859 415.882 215.213 415.49 215.488C415.097 215.755 414.612 215.91 414.035 215.954C413.252 216.014 412.623 215.89 412.148 215.582C411.681 215.266 411.332 214.799 411.101 214.182C410.878 213.565 410.731 212.784 410.659 211.842C410.448 209.059 411.322 207.593 413.284 207.444C414.044 207.386 414.656 207.546 415.121 207.923C415.593 208.3 415.89 208.786 416.012 209.381L414.814 209.472ZM413.585 211.55C413.121 211.585 412.736 211.756 412.431 212.062C412.132 212.36 412.003 212.772 412.043 213.296C412.083 213.821 412.263 214.227 412.583 214.517C412.91 214.798 413.344 214.917 413.884 214.876C414.363 214.84 414.728 214.663 414.979 214.346C415.238 214.028 415.348 213.622 415.311 213.127C415.271 212.61 415.103 212.21 414.806 211.927C414.517 211.636 414.109 211.51 413.585 211.55ZM418.848 215.668C418.613 215.686 418.409 215.621 418.237 215.474C418.065 215.326 417.97 215.135 417.953 214.899C417.935 214.663 417.999 214.459 418.147 214.288C418.294 214.116 418.486 214.021 418.722 214.003C418.95 213.986 419.15 214.051 419.321 214.198C419.493 214.346 419.588 214.537 419.606 214.773C419.624 215.008 419.559 215.212 419.412 215.384C419.264 215.556 419.076 215.65 418.848 215.668ZM421.599 215.458C421.363 215.476 421.159 215.411 420.988 215.264C420.816 215.116 420.721 214.925 420.703 214.689C420.685 214.454 420.75 214.25 420.897 214.078C421.045 213.906 421.237 213.811 421.472 213.793C421.7 213.776 421.9 213.841 422.072 213.988C422.244 214.136 422.339 214.328 422.357 214.563C422.375 214.799 422.31 215.003 422.162 215.174C422.015 215.346 421.827 215.441 421.599 215.458ZM424.349 215.249C424.114 215.267 423.91 215.202 423.738 215.054C423.567 214.907 423.472 214.715 423.454 214.48C423.436 214.244 423.501 214.04 423.648 213.868C423.796 213.697 423.987 213.602 424.223 213.584C424.451 213.566 424.651 213.631 424.823 213.779C424.994 213.926 425.089 214.118 425.107 214.354C425.125 214.589 425.06 214.793 424.913 214.965C424.765 215.137 424.578 215.231 424.349 215.249ZM427.1 215.039C426.864 215.057 426.661 214.992 426.489 214.845C426.317 214.697 426.222 214.506 426.204 214.27C426.186 214.034 426.251 213.831 426.399 213.659C426.546 213.487 426.738 213.392 426.973 213.374C427.201 213.357 427.401 213.422 427.573 213.569C427.745 213.717 427.84 213.908 427.858 214.144C427.876 214.38 427.811 214.583 427.663 214.755C427.516 214.927 427.328 215.022 427.1 215.039ZM429.851 214.829C429.615 214.847 429.411 214.783 429.24 214.635C429.068 214.488 428.973 214.296 428.955 214.06C428.937 213.825 429.002 213.621 429.149 213.449C429.297 213.277 429.488 213.182 429.724 213.165C429.952 213.147 430.152 213.212 430.324 213.36C430.496 213.507 430.59 213.699 430.608 213.934C430.626 214.17 430.562 214.374 430.414 214.546C430.267 214.717 430.079 214.812 429.851 214.829ZM436.712 206.989L432.892 207.28L433.064 209.549C433.208 209.324 433.43 209.128 433.731 208.96C434.039 208.791 434.372 208.693 434.729 208.666C435.368 208.617 435.895 208.714 436.311 208.958C436.735 209.201 437.046 209.525 437.245 209.93C437.452 210.335 437.573 210.77 437.608 211.233C437.651 211.796 437.579 212.306 437.392 212.764C437.212 213.213 436.915 213.58 436.501 213.864C436.094 214.147 435.579 214.313 434.956 214.36C434.127 214.423 433.446 214.269 432.913 213.896C432.38 213.524 432.039 213.003 431.888 212.334L433.154 212.238C433.265 212.589 433.473 212.86 433.778 213.051C434.082 213.234 434.451 213.309 434.885 213.276C435.424 213.235 435.815 213.041 436.056 212.693C436.305 212.346 436.409 211.902 436.368 211.362C436.326 210.815 436.157 210.407 435.862 210.139C435.566 209.863 435.151 209.746 434.619 209.786C434.247 209.815 433.938 209.934 433.694 210.144C433.457 210.345 433.294 210.61 433.204 210.938L431.973 211.032L431.608 206.231L436.625 205.849L436.712 206.989ZM439.767 212.216C440.448 211.529 440.983 210.968 441.37 210.534C441.765 210.091 442.086 209.638 442.334 209.176C442.582 208.713 442.689 208.262 442.655 207.821C442.62 207.365 442.483 207.016 442.243 206.774C442.01 206.532 441.662 206.428 441.198 206.464C440.75 206.498 440.411 206.669 440.182 206.977C439.96 207.277 439.86 207.667 439.881 208.147L438.627 208.242C438.584 207.374 438.792 206.693 439.251 206.199C439.718 205.697 440.335 205.417 441.103 205.358C441.932 205.295 442.595 205.474 443.094 205.895C443.6 206.315 443.881 206.905 443.939 207.665C443.981 208.213 443.881 208.752 443.638 209.283C443.402 209.805 443.106 210.283 442.749 210.715C442.399 211.14 441.948 211.637 441.394 212.206L440.916 212.702L444.531 212.426L444.613 213.509L439.071 213.932L438.999 212.985L439.767 212.216ZM448.224 213.452C447.729 213.49 447.278 213.436 446.869 213.292C446.468 213.139 446.141 212.919 445.89 212.632C445.638 212.338 445.49 212.001 445.446 211.622L446.792 211.52C446.835 211.784 446.977 211.999 447.219 212.164C447.468 212.321 447.768 212.386 448.117 212.359C448.482 212.331 448.758 212.242 448.946 212.09C449.14 211.93 449.229 211.739 449.212 211.519C449.194 211.283 449.067 211.117 448.83 211.02C448.601 210.923 448.238 210.825 447.741 210.725C447.26 210.632 446.866 210.535 446.56 210.436C446.255 210.337 445.982 210.171 445.742 209.937C445.511 209.702 445.379 209.379 445.348 208.969C445.322 208.634 445.398 208.323 445.575 208.034C445.751 207.738 446.016 207.496 446.368 207.308C446.729 207.12 447.148 207.008 447.627 206.972C448.342 206.917 448.93 207.056 449.391 207.388C449.859 207.711 450.132 208.184 450.21 208.805L448.91 208.904C448.866 208.624 448.734 208.409 448.516 208.257C448.298 208.106 448.015 208.043 447.665 208.07C447.323 208.096 447.065 208.18 446.893 208.324C446.72 208.467 446.642 208.645 446.658 208.858C446.671 209.025 446.742 209.161 446.873 209.266C447.003 209.37 447.158 209.45 447.338 209.505C447.518 209.553 447.782 209.613 448.132 209.686C448.597 209.773 448.979 209.87 449.278 209.977C449.584 210.076 449.852 210.239 450.084 210.466C450.315 210.693 450.45 211.008 450.488 211.41C450.515 211.767 450.441 212.094 450.265 212.391C450.088 212.687 449.824 212.929 449.471 213.116C449.126 213.303 448.71 213.415 448.224 213.452ZM454.791 206.426C455.27 206.389 455.703 206.459 456.091 206.636C456.487 206.813 456.807 207.094 457.05 207.481C457.301 207.867 457.448 208.345 457.492 208.915L457.774 212.621L456.485 212.719L456.218 209.207C456.175 208.645 456.002 208.226 455.698 207.951C455.394 207.668 454.998 207.545 454.512 207.582C454.025 207.619 453.649 207.801 453.383 208.127C453.124 208.445 453.016 208.885 453.059 209.448L453.326 212.96L452.026 213.059L451.384 204.621L452.684 204.522L452.904 207.407C453.104 207.124 453.366 206.897 453.69 206.727C454.021 206.557 454.388 206.456 454.791 206.426ZM458.762 206.249C458.754 205.539 458.982 204.967 459.446 204.534C459.917 204.1 460.541 203.854 461.316 203.795C461.848 203.754 462.316 203.814 462.718 203.975C463.12 204.135 463.432 204.372 463.655 204.683C463.877 204.995 464.004 205.357 464.035 205.767C464.071 206.238 463.977 206.651 463.751 207.004C463.526 207.358 463.242 207.605 462.901 207.746L462.905 207.792C463.364 207.894 463.733 208.118 464.011 208.464C464.289 208.802 464.45 209.253 464.493 209.815C464.527 210.264 464.454 210.671 464.276 211.036C464.097 211.402 463.814 211.702 463.427 211.938C463.039 212.167 462.564 212.302 462.001 212.345C461.18 212.408 460.488 212.25 459.924 211.872C459.367 211.487 459.039 210.9 458.941 210.112L460.195 210.017C460.256 210.417 460.437 210.736 460.738 210.973C461.039 211.203 461.428 211.299 461.907 211.263C462.371 211.227 462.719 211.075 462.951 210.805C463.182 210.527 463.282 210.187 463.251 209.784C463.211 209.252 463.011 208.888 462.652 208.694C462.301 208.491 461.775 208.417 461.076 208.47L460.779 208.493L460.698 207.421L461.005 207.397C461.621 207.343 462.08 207.204 462.385 206.982C462.696 206.76 462.836 206.436 462.804 206.01C462.776 205.645 462.636 205.365 462.384 205.17C462.132 204.968 461.789 204.883 461.356 204.916C460.93 204.948 460.608 205.084 460.389 205.322C460.169 205.553 460.049 205.83 460.028 206.153L458.762 206.249Z" fill="white"/>
<path d="M376.822 258.022C377.035 256.72 377.419 255.74 377.975 255.082C378.539 254.417 379.36 254.173 380.436 254.349C381.511 254.525 382.207 255.018 382.523 255.827C382.848 256.629 382.903 257.681 382.69 258.983C382.475 260.3 382.085 261.294 381.519 261.967C380.962 262.632 380.145 262.877 379.069 262.701C377.993 262.525 377.294 262.031 376.971 261.221C376.656 260.405 376.606 259.338 376.822 258.022ZM381.426 258.776C381.526 258.167 381.569 257.644 381.555 257.209C381.549 256.776 381.447 256.408 381.249 256.105C381.053 255.794 380.718 255.6 380.244 255.523C379.77 255.445 379.39 255.522 379.105 255.753C378.821 255.977 378.603 256.293 378.452 256.701C378.307 257.11 378.186 257.619 378.086 258.229C377.982 258.861 377.933 259.397 377.938 259.839C377.943 260.28 378.045 260.652 378.243 260.955C378.448 261.259 378.787 261.449 379.261 261.527C379.735 261.605 380.114 261.532 380.398 261.308C380.69 261.085 380.908 260.765 381.053 260.349C381.199 259.932 381.323 259.408 381.426 258.776ZM386.709 260.743L388.203 264.221L386.747 263.982L385.749 261.651L384.14 263.555L382.797 263.335L385.306 260.605L383.814 257.116L385.27 257.355L386.268 259.685L387.877 257.782L389.22 258.002L386.709 260.743ZM389.243 261.192C389.348 260.553 389.567 260.013 389.902 259.574C390.245 259.128 390.668 258.811 391.17 258.623C391.672 258.434 392.22 258.389 392.815 258.486C393.567 258.61 394.158 258.892 394.588 259.333C395.027 259.768 395.279 260.331 395.344 261.021L393.955 260.794C393.893 260.467 393.752 260.197 393.532 259.983C393.312 259.769 393.014 259.632 392.638 259.57C392.111 259.484 391.659 259.603 391.281 259.927C390.912 260.245 390.673 260.739 390.564 261.409C390.454 262.078 390.523 262.627 390.77 263.053C391.024 263.481 391.415 263.739 391.942 263.825C392.686 263.947 393.233 263.7 393.581 263.085L394.969 263.313C394.685 263.915 394.264 264.364 393.706 264.659C393.149 264.946 392.502 265.029 391.764 264.908C391.17 264.811 390.665 264.593 390.249 264.254C389.834 263.908 389.535 263.473 389.35 262.948C389.174 262.417 389.139 261.832 389.243 261.192ZM401.218 259.863C401.192 259.504 401.084 259.219 400.894 259.011C400.704 258.802 400.414 258.665 400.023 258.601C399.428 258.504 398.947 258.661 398.578 259.071C398.211 259.475 397.934 260.202 397.746 261.253C397.996 260.954 398.324 260.745 398.73 260.626C399.135 260.507 399.556 260.483 399.993 260.555C400.489 260.636 400.908 260.817 401.248 261.097C401.598 261.37 401.844 261.727 401.989 262.168C402.14 262.61 402.17 263.113 402.078 263.678C401.992 264.204 401.809 264.657 401.531 265.037C401.26 265.417 400.902 265.695 400.456 265.869C400.012 266.036 399.504 266.072 398.932 265.978C398.157 265.851 397.575 265.582 397.187 265.171C396.807 264.753 396.578 264.217 396.499 263.563C396.428 262.911 396.469 262.118 396.622 261.185C397.072 258.431 398.268 257.213 400.209 257.531C400.962 257.654 401.519 257.954 401.881 258.431C402.251 258.908 402.425 259.451 402.403 260.057L401.218 259.863ZM399.533 261.592C399.074 261.517 398.66 261.592 398.291 261.817C397.931 262.036 397.708 262.406 397.623 262.925C397.539 263.444 397.618 263.882 397.861 264.238C398.112 264.589 398.505 264.808 399.039 264.895C399.513 264.973 399.91 264.887 400.229 264.638C400.555 264.39 400.758 264.022 400.838 263.533C400.922 263.021 400.853 262.592 400.631 262.247C400.419 261.895 400.053 261.677 399.533 261.592ZM409.399 260.265L405.078 266.985L403.78 266.773L408.113 260.193L403.937 259.509L404.116 258.414L409.556 259.306L409.399 260.265ZM409.992 267.872C409.759 267.833 409.576 267.722 409.444 267.539C409.312 267.355 409.265 267.146 409.303 266.913C409.341 266.68 409.452 266.497 409.636 266.365C409.82 266.233 410.029 266.186 410.262 266.224C410.488 266.261 410.666 266.371 410.799 266.555C410.931 266.739 410.978 266.948 410.94 267.181C410.901 267.414 410.79 267.597 410.607 267.729C410.423 267.861 410.218 267.909 409.992 267.872ZM412.715 268.318C412.481 268.28 412.299 268.168 412.166 267.985C412.034 267.801 411.987 267.592 412.025 267.359C412.064 267.126 412.175 266.943 412.358 266.811C412.542 266.679 412.751 266.632 412.984 266.67C413.21 266.707 413.389 266.817 413.521 267.001C413.653 267.185 413.7 267.394 413.662 267.627C413.624 267.86 413.513 268.043 413.329 268.175C413.145 268.307 412.94 268.355 412.715 268.318ZM415.437 268.764C415.204 268.726 415.021 268.614 414.889 268.431C414.757 268.247 414.71 268.038 414.748 267.805C414.786 267.572 414.897 267.389 415.081 267.257C415.265 267.125 415.473 267.078 415.706 267.116C415.932 267.153 416.111 267.263 416.243 267.447C416.375 267.631 416.422 267.84 416.384 268.073C416.346 268.306 416.235 268.489 416.051 268.621C415.867 268.753 415.663 268.801 415.437 268.764ZM418.159 269.21C417.926 269.172 417.743 269.061 417.611 268.877C417.479 268.693 417.432 268.484 417.47 268.251C417.508 268.018 417.619 267.835 417.803 267.703C417.987 267.571 418.195 267.524 418.429 267.562C418.654 267.599 418.833 267.709 418.965 267.893C419.098 268.077 419.145 268.286 419.106 268.519C419.068 268.752 418.957 268.935 418.773 269.067C418.59 269.199 418.385 269.247 418.159 269.21ZM420.881 269.656C420.648 269.618 420.465 269.507 420.333 269.323C420.201 269.139 420.154 268.93 420.192 268.697C420.23 268.464 420.341 268.281 420.525 268.149C420.709 268.017 420.918 267.97 421.151 268.008C421.377 268.045 421.556 268.155 421.688 268.339C421.82 268.523 421.867 268.732 421.829 268.965C421.791 269.198 421.68 269.381 421.496 269.513C421.312 269.645 421.107 269.693 420.881 269.656ZM429.397 263.657L425.617 263.038L425.249 265.284C425.442 265.099 425.704 264.961 426.036 264.868C426.375 264.777 426.722 264.76 427.075 264.818C427.707 264.922 428.197 265.141 428.544 265.476C428.898 265.812 429.124 266.201 429.222 266.642C429.328 267.084 429.343 267.535 429.268 267.994C429.177 268.55 428.986 269.029 428.697 269.43C428.416 269.824 428.041 270.11 427.571 270.288C427.109 270.468 426.57 270.507 425.953 270.406C425.133 270.271 424.508 269.96 424.077 269.473C423.647 268.985 423.438 268.398 423.45 267.713L424.703 267.918C424.728 268.285 424.866 268.597 425.117 268.855C425.37 269.105 425.711 269.265 426.139 269.335C426.674 269.423 427.099 269.326 427.415 269.046C427.739 268.767 427.945 268.36 428.032 267.826C428.121 267.284 428.053 266.848 427.829 266.518C427.606 266.18 427.231 265.968 426.704 265.882C426.336 265.821 426.008 265.864 425.721 266.01C425.444 266.15 425.222 266.369 425.058 266.666L423.839 266.467L424.616 261.715L429.582 262.529L429.397 263.657ZM435.594 265.496C435.568 265.136 435.46 264.852 435.27 264.643C435.08 264.434 434.79 264.298 434.398 264.233C433.804 264.136 433.322 264.293 432.954 264.704C432.587 265.107 432.309 265.834 432.122 266.885C432.372 266.586 432.7 266.377 433.105 266.258C433.511 266.139 433.932 266.116 434.368 266.187C434.865 266.268 435.284 266.449 435.624 266.729C435.973 267.002 436.22 267.36 436.364 267.8C436.516 268.242 436.546 268.746 436.453 269.31C436.367 269.837 436.185 270.29 435.907 270.669C435.636 271.05 435.278 271.327 434.832 271.501C434.387 271.668 433.879 271.704 433.307 271.611C432.533 271.484 431.951 271.215 431.562 270.803C431.182 270.386 430.953 269.85 430.875 269.196C430.804 268.543 430.845 267.75 430.998 266.817C431.448 264.063 432.644 262.845 434.585 263.163C435.337 263.286 435.895 263.586 436.257 264.063C436.627 264.541 436.801 265.083 436.779 265.69L435.594 265.496ZM433.909 267.224C433.45 267.149 433.036 267.224 432.667 267.45C432.307 267.669 432.084 268.038 431.999 268.557C431.914 269.076 431.993 269.514 432.236 269.871C432.488 270.221 432.881 270.44 433.415 270.527C433.889 270.605 434.286 270.519 434.604 270.27C434.931 270.022 435.134 269.654 435.214 269.165C435.298 268.653 435.229 268.225 435.007 267.879C434.794 267.528 434.428 267.309 433.909 267.224ZM439.353 265.37C439.12 265.331 438.937 265.22 438.805 265.037C438.673 264.853 438.626 264.644 438.664 264.411C438.702 264.178 438.813 263.995 438.997 263.863C439.181 263.731 439.389 263.684 439.623 263.722C439.848 263.759 440.027 263.869 440.159 264.053C440.292 264.237 440.339 264.446 440.3 264.679C440.262 264.912 440.151 265.095 439.967 265.227C439.784 265.359 439.579 265.407 439.353 265.37ZM439.85 266.297L438.833 272.516L437.546 272.305L438.564 266.086L439.85 266.297ZM442.763 273.264C442.274 273.184 441.848 273.025 441.485 272.788C441.131 272.545 440.865 272.254 440.689 271.916C440.514 271.571 440.449 271.209 440.496 270.83L441.827 271.048C441.807 271.315 441.895 271.557 442.091 271.775C442.296 271.986 442.571 272.12 442.917 272.177C443.279 272.236 443.568 272.214 443.786 272.111C444.012 272.001 444.144 271.837 444.179 271.619C444.217 271.386 444.133 271.194 443.926 271.044C443.726 270.896 443.396 270.714 442.937 270.5C442.491 270.295 442.132 270.109 441.858 269.941C441.584 269.772 441.359 269.546 441.181 269.262C441.011 268.979 440.959 268.634 441.026 268.228C441.08 267.897 441.227 267.612 441.467 267.373C441.708 267.127 442.022 266.954 442.409 266.855C442.803 266.758 443.238 266.748 443.712 266.826C444.419 266.941 444.957 267.215 445.327 267.646C445.706 268.072 445.86 268.595 445.789 269.217L444.502 269.006C444.525 268.724 444.449 268.484 444.273 268.285C444.097 268.086 443.835 267.958 443.489 267.902C443.151 267.846 442.881 267.868 442.679 267.966C442.478 268.064 442.36 268.219 442.325 268.429C442.298 268.595 442.336 268.744 442.438 268.877C442.539 269.009 442.671 269.124 442.833 269.22C442.997 269.308 443.239 269.429 443.562 269.582C443.994 269.777 444.342 269.961 444.607 270.136C444.881 270.304 445.103 270.526 445.275 270.802C445.446 271.077 445.503 271.415 445.445 271.815C445.387 272.168 445.238 272.468 444.997 272.715C444.755 272.961 444.441 273.134 444.054 273.232C443.675 273.332 443.244 273.343 442.763 273.264ZM448.35 271.781C448.364 272.169 448.479 272.482 448.695 272.718C448.911 272.954 449.23 273.107 449.651 273.176C450.185 273.263 450.611 273.117 450.928 272.736C451.246 272.356 451.487 271.657 451.653 270.642C451.431 270.868 451.143 271.025 450.788 271.114C450.442 271.196 450.078 271.206 449.694 271.143C449.205 271.063 448.777 270.893 448.41 270.632C448.045 270.363 447.777 270.014 447.608 269.585C447.448 269.149 447.414 268.649 447.506 268.085C447.641 267.257 447.99 266.638 448.551 266.228C449.121 265.811 449.832 265.673 450.682 265.812C451.705 265.98 452.375 266.441 452.692 267.196C453.018 267.945 453.065 269.023 452.835 270.43C452.677 271.4 452.464 272.18 452.198 272.77C451.939 273.361 451.584 273.782 451.133 274.033C450.683 274.284 450.104 274.351 449.397 274.235C448.592 274.103 448.006 273.791 447.638 273.298C447.271 272.805 447.113 272.235 447.165 271.586L448.35 271.781ZM450.097 270.097C450.548 270.171 450.925 270.089 451.226 269.853C451.536 269.61 451.729 269.256 451.806 268.789C451.891 268.27 451.817 267.845 451.586 267.513C451.363 267.175 451.014 266.967 450.54 266.89C450.066 266.812 449.666 266.901 449.338 267.156C449.019 267.405 448.82 267.771 448.742 268.252C448.666 268.711 448.736 269.113 448.95 269.457C449.173 269.795 449.555 270.008 450.097 270.097Z" fill="#F6C723"/>
<defs>
<linearGradient id="paint0_linear_233_863" x1="135.096" y1="127.247" x2="418.212" y2="119.624" gradientUnits="userSpaceOnUse">
<stop stop-color="#E27469"/>
<stop offset="1" stop-color="#D74634"/>
</linearGradient>
<linearGradient id="paint1_linear_233_863" x1="126.916" y1="279.127" x2="270.964" y2="277.89" gradientUnits="userSpaceOnUse">
<stop stop-color="#E27469"/>
<stop offset="1" stop-color="#D74634"/>
</linearGradient>
<linearGradient id="paint2_linear_233_863" x1="285.015" y1="279.127" x2="429.058" y2="277.89" gradientUnits="userSpaceOnUse">
<stop stop-color="#E27469"/>
<stop offset="1" stop-color="#D74634"/>
</linearGradient>
<linearGradient id="paint3_linear_233_863" x1="134.45" y1="314.715" x2="418.805" y2="306.451" gradientUnits="userSpaceOnUse">
<stop stop-color="#E27469"/>
<stop offset="1" stop-color="#D74634"/>
</linearGradient>
<linearGradient id="paint4_linear_233_863" x1="70.1076" y1="106.784" x2="170.195" y2="105.606" gradientUnits="userSpaceOnUse">
<stop stop-color="#B93C30"/>
<stop offset="1" stop-color="#D74634"/>
</linearGradient>
<linearGradient id="paint5_linear_233_863" x1="36.1124" y1="79.098" x2="167.81" y2="74.8981" gradientUnits="userSpaceOnUse">
<stop stop-color="#ED5243"/>
<stop offset="1" stop-color="#D74634"/>
</linearGradient>
<linearGradient id="paint6_linear_233_863" x1="68.0124" y1="130.728" x2="113.657" y2="130.182" gradientUnits="userSpaceOnUse">
<stop stop-color="#E27469"/>
<stop offset="1" stop-color="#D74634"/>
</linearGradient>
<linearGradient id="paint7_linear_233_863" x1="82.2892" y1="99.4823" x2="171.003" y2="98.4123" gradientUnits="userSpaceOnUse">
<stop stop-color="#ED5243"/>
<stop offset="1" stop-color="#D74634"/>
</linearGradient>
<linearGradient id="paint8_linear_233_863" x1="338.451" y1="180.538" x2="469.766" y2="139.941" gradientUnits="userSpaceOnUse">
<stop stop-color="#F5841F"/>
<stop offset="1" stop-color="#CC6228"/>
</linearGradient>
<linearGradient id="paint9_linear_233_863" x1="468.326" y1="240.681" x2="536.41" y2="239.99" gradientUnits="userSpaceOnUse">
<stop stop-color="#E27469"/>
<stop offset="1" stop-color="#D74634"/>
</linearGradient>
<linearGradient id="paint10_linear_233_863" x1="380.857" y1="32.4026" x2="398.461" y2="32.2158" gradientUnits="userSpaceOnUse">
<stop stop-color="#E27469"/>
<stop offset="1" stop-color="#D74634"/>
</linearGradient>
<linearGradient id="paint11_linear_233_863" x1="43.7865" y1="347.347" x2="63.3483" y2="347.149" gradientUnits="userSpaceOnUse">
<stop stop-color="#E27469"/>
<stop offset="1" stop-color="#D74634"/>
</linearGradient>
<linearGradient id="paint12_linear_233_863" x1="50.5791" y1="350.179" x2="57.553" y2="343.063" gradientUnits="userSpaceOnUse">
<stop stop-color="#E27469"/>
<stop offset="1" stop-color="#D74634"/>
</linearGradient>
<linearGradient id="paint13_linear_233_863" x1="276.669" y1="407.398" x2="285.661" y2="407.307" gradientUnits="userSpaceOnUse">
<stop stop-color="#E27469"/>
<stop offset="1" stop-color="#D74634"/>
</linearGradient>
<linearGradient id="paint14_linear_233_863" x1="192.714" y1="5.60026" x2="201.705" y2="5.50892" gradientUnits="userSpaceOnUse">
<stop stop-color="#E27469"/>
<stop offset="1" stop-color="#D74634"/>
</linearGradient>
</defs>
</svg>
