<svg width="260" height="48" viewBox="0 0 260 48" fill="none" xmlns="http://www.w3.org/2000/svg">
<path d="M188.51 16.5462C191.585 16.5462 194.025 17.4806 195.829 19.3496C197.663 21.2185 198.579 23.8143 198.579 27.1369V41.6434H191.038V28.1603C191.038 26.5584 190.609 25.3272 189.752 24.4669C188.924 23.577 187.77 23.132 186.292 23.132C184.813 23.132 183.645 23.577 182.787 24.4669C181.959 25.3272 181.545 26.5584 181.545 28.1603V41.6434H174.004V28.1603C174.004 26.5584 173.575 25.3272 172.718 24.4669C171.89 23.577 170.736 23.132 169.258 23.132C167.779 23.132 166.611 23.577 165.753 24.4669C164.925 25.3272 164.511 26.5584 164.511 28.1603V41.6434H156.926V16.8132H164.511V19.9281C165.28 18.8898 166.285 18.074 167.528 17.4806C168.77 16.8577 170.174 16.5462 171.742 16.5462C173.605 16.5462 175.261 16.9467 176.71 17.7476C178.189 18.5486 179.342 19.6907 180.17 21.174C181.028 19.8094 182.196 18.6969 183.674 17.8366C185.153 16.9763 186.765 16.5462 188.51 16.5462Z" fill="#1E2128"/>
<path d="M200.49 29.1838C200.49 26.6325 200.963 24.3928 201.909 22.4645C202.885 20.5362 204.201 19.0529 205.857 18.0146C207.513 16.9763 209.362 16.4572 211.402 16.4572C213.147 16.4572 214.67 16.8132 215.971 17.5251C217.302 18.2371 218.322 19.1716 219.032 20.3286V16.8132H226.618V41.6434H219.032V38.128C218.293 39.285 217.258 40.2194 215.927 40.9314C214.626 41.6434 213.103 41.9994 211.358 41.9994C209.347 41.9994 207.513 41.4802 205.857 40.4419C204.201 39.374 202.885 37.8759 201.909 35.9476C200.963 33.9896 200.49 31.735 200.49 29.1838ZM219.032 29.2283C219.032 27.3297 218.5 25.8316 217.435 24.7339C216.4 23.6363 215.128 23.0875 213.62 23.0875C212.112 23.0875 210.826 23.6363 209.761 24.7339C208.726 25.8019 208.208 27.2852 208.208 29.1838C208.208 31.0824 208.726 32.5953 209.761 33.7226C210.826 34.8203 212.112 35.3691 213.62 35.3691C215.128 35.3691 216.4 34.8203 217.435 33.7226C218.5 32.625 219.032 31.1269 219.032 29.2283Z" fill="#1E2128"/>
<path d="M234.034 14.2322C232.703 14.2322 231.609 13.8466 230.751 13.0753C229.923 12.2743 229.509 11.2953 229.509 10.1384C229.509 8.95174 229.923 7.97277 230.751 7.20146C231.609 6.40049 232.703 6 234.034 6C235.335 6 236.4 6.40049 237.228 7.20146C238.085 7.97277 238.514 8.95174 238.514 10.1384C238.514 11.2953 238.085 12.2743 237.228 13.0753C236.4 13.8466 235.335 14.2322 234.034 14.2322ZM237.805 16.8132V41.6434H230.219V16.8132H237.805Z" fill="#1E2128"/>
<path d="M249.001 8.71442V41.6434H241.415V8.71442H249.001Z" fill="#1E2128"/>
<path fill-rule="evenodd" clip-rule="evenodd" d="M71.105 19.3085C69.3898 17.4159 67.1129 16.4696 64.274 16.4696C62.618 16.4696 61.1247 16.7949 59.794 17.4455C58.4633 18.096 57.4135 18.9684 56.6447 20.0625V8.66284H49.0597V41.4869H56.6447V28.0468C56.6447 26.3908 57.0734 25.1044 57.931 24.1877C58.7886 23.271 59.9419 22.8127 61.3908 22.8127C62.8398 22.8127 63.9931 23.271 64.8507 24.1877C65.7082 25.1044 66.137 26.3908 66.137 28.0468V41.4869H73.6777V27.0266C73.6777 23.7441 72.8201 21.1715 71.105 19.3085ZM76.9735 22.3691C76.0272 24.2912 75.5541 26.5238 75.5541 29.067C75.5541 31.6101 76.0272 33.8575 76.9735 35.8092C77.9493 37.7313 79.2653 39.2247 80.9213 40.2892C82.5772 41.3242 84.4107 41.8417 86.4215 41.8417C88.1662 41.8417 89.6891 41.4869 90.9902 40.7772C92.321 40.0674 93.3559 39.136 94.0952 37.9827V41.4869H101.68V16.7358H94.0952V20.24C93.3855 19.0867 92.3653 18.1552 91.0346 17.4455C89.7335 16.7358 88.2106 16.3809 86.4659 16.3809C84.4254 16.3809 82.5772 16.8984 80.9213 17.9334C79.2653 18.9684 77.9493 20.447 76.9735 22.3691ZM92.4984 24.6313C93.5629 25.7254 94.0952 27.2188 94.0952 29.1113C94.0952 31.0039 93.5629 32.4972 92.4984 33.5914C91.4634 34.6855 90.1918 35.2326 88.6837 35.2326C87.1756 35.2326 85.8892 34.6855 84.8247 33.5914C83.7897 32.4676 83.2722 30.9595 83.2722 29.067C83.2722 27.1744 83.7897 25.6958 84.8247 24.6313C85.8892 23.5371 87.1756 22.9901 88.6837 22.9901C90.1918 22.9901 91.4634 23.5371 92.4984 24.6313ZM109.584 40.7328C111.27 41.4721 113.192 41.8417 115.35 41.8417C117.361 41.8417 119.121 41.5164 120.629 40.8659C122.167 40.2153 123.335 39.3282 124.133 38.2045C124.961 37.0512 125.375 35.7501 125.375 34.3011C125.345 32.5859 124.887 31.2257 124 30.2202C123.142 29.1852 122.137 28.446 120.984 28.0024C119.83 27.5293 118.337 27.0561 116.504 26.583C114.907 26.2281 113.724 25.8733 112.955 25.5184C112.216 25.1636 111.846 24.6313 111.846 23.9216C111.846 23.3302 112.083 22.8718 112.556 22.5465C113.029 22.1917 113.709 22.0142 114.596 22.0142C115.631 22.0142 116.459 22.2656 117.08 22.7683C117.731 23.271 118.115 23.9511 118.234 24.8087H125.242C124.976 22.2656 123.941 20.2252 122.137 18.6875C120.363 17.1498 117.923 16.3809 114.818 16.3809C112.719 16.3809 110.9 16.721 109.362 17.4011C107.854 18.0813 106.701 19.0128 105.902 20.1956C105.134 21.3489 104.749 22.6352 104.749 24.0546C104.749 25.7402 105.178 27.0857 106.035 28.0911C106.893 29.067 107.913 29.7915 109.096 30.2646C110.279 30.7082 111.757 31.1369 113.532 31.5509C115.188 31.9649 116.385 32.3494 117.125 32.7042C117.864 33.0295 118.234 33.547 118.234 34.2567C118.234 34.8481 117.967 35.3361 117.435 35.7205C116.932 36.0753 116.208 36.2528 115.262 36.2528C114.227 36.2528 113.354 35.9866 112.645 35.4543C111.935 34.9221 111.536 34.2271 111.447 33.3696H103.951C104.069 34.9664 104.616 36.4154 105.592 37.7165C106.568 38.9881 107.898 39.9935 109.584 40.7328ZM150.175 19.3085C148.459 17.4159 146.182 16.4696 143.344 16.4696C141.688 16.4696 140.194 16.7949 138.864 17.4455C137.533 18.096 136.483 18.9684 135.714 20.0625V8.66284H128.129V41.4869H135.714V28.0468C135.714 26.3908 136.143 25.1044 137.001 24.1877C137.858 23.271 139.011 22.8127 140.46 22.8127C141.909 22.8127 143.063 23.271 143.92 24.1877C144.778 25.1044 145.207 26.3908 145.207 28.0468V41.4869H152.747V27.0266C152.747 23.7441 151.89 21.1715 150.175 19.3085ZM26.7016 8.66804H21.3987L19.8758 15.6386L13.6522 15.6489L13.6524 20.8436L18.7404 20.8351L16.9701 28.9383L10.9999 28.9482L11 34.1428L15.8347 34.1348L14.3281 41.0307H19.631L21.1396 34.126L33.5189 34.1055L32.0059 41.0307H37.3088L38.8237 34.0967L44.0272 34.0881V28.8934L39.959 28.9002L41.7294 20.797L46.6796 20.7888V15.5942L42.8647 15.6005L44.3793 8.66804H39.0764L37.5599 15.6093L25.1806 15.6298L26.7016 8.66804ZM36.3596 21.1034L34.6542 28.909L22.2749 28.9295L24.044 20.832L28.9356 24.3945C29.1321 24.5376 29.3918 24.5596 29.6095 24.4516L36.3596 21.1034ZM29.4644 22.3224L25.9182 20.8761H34.6265L29.9041 22.3414C29.7598 22.3862 29.6044 22.3795 29.4644 22.3224Z" fill="url(#paint0_linear_254_1090)"/>
<defs>
<linearGradient id="paint0_linear_254_1090" x1="17.7515" y1="27.0297" x2="143.524" y2="21.5703" gradientUnits="userSpaceOnUse">
<stop stop-color="#E27469"/>
<stop offset="1" stop-color="#D74634"/>
</linearGradient>
</defs>
</svg>
